<?xml version="1.0" encoding="UTF-8" standalone="no"?>
<!DOCTYPE svg PUBLIC "-//W3C//DTD SVG 1.0//EN" "http://www.w3.org/TR/2001/REC-SVG-20010904/DTD/svg10.dtd">
<!-- Generated by Microsoft Visio 11.0, SVG Export, v1.0 4-1mux.svg Page-1 -->
<svg xmlns="http://www.w3.org/2000/svg" xmlns:xlink="http://www.w3.org/1999/xlink" xmlns:ev="http://www.w3.org/2001/xml-events"
		xmlns:v="http://schemas.microsoft.com/visio/2003/SVGExtensions/" width="5.6875in" height="4.375in" viewBox="0 0 409.5 315"
		xml:space="preserve" color-interpolation-filters="sRGB" class="st7">
	<v:documentProperties v:langID="1033">
		<v:userDefs>
			<v:ud v:nameU="msvNoAutoConnect" v:val="VT0(1):26"/>
		</v:userDefs>
	</v:documentProperties>

	<style type="text/css">
	<![CDATA[
		.st1 {fill:#ffffff;stroke:#000000;stroke-linecap:round;stroke-linejoin:round;stroke-width:3}
		.st2 {fill:none;stroke:none;stroke-width:1}
		.st3 {fill:none}
		.st4 {stroke:#000000;stroke-linecap:round;stroke-linejoin:round;stroke-width:3}
		.st5 {fill:none;stroke:none;stroke-linecap:round;stroke-linejoin:round;stroke-width:0.75}
		.st6 {fill:#000000;font-family:Arial;font-size:1.33333em}
		.st7 {fill:none;fill-rule:evenodd;font-size:12px;overflow:visible;stroke-linecap:square;stroke-miterlimit:3}
	]]>
	</style>

	<g v:mID="0" v:index="1" v:groupContext="foregroundPage">
		<title>Page-1</title>
		<v:pageProperties v:drawingScale="1" v:pageScale="1" v:drawingUnits="19" v:shadowOffsetX="9" v:shadowOffsetY="-9"/>
		<g id="shape1-1" v:mID="1" v:groupContext="shape" transform="translate(195.415,-94.449)">
			<title>Sheet.1</title>
			<path d="M0 132.28 L0 315 L73.09 278.46 L73.09 168.82 L0 132.28 Z" class="st1"/>
		</g>
		<g id="group2-3" transform="translate(268.503,-185.81)" v:mID="2" v:groupContext="group">
			<title>Sheet.2</title>
			<g id="shape3-4" v:mID="3" v:groupContext="shape">
				<title>Sheet.3</title>
				<path d="M0 315 L59.38 315 L0 315 Z" class="st2"/>
			</g>
			<g id="shape4-6" v:mID="4" v:groupContext="shape">
				<title>Sheet.4</title>
				<path d="M0 315 L59.38 315 L0 315 Z" class="st3"/>
				<path d="M0 315 L59.38 315" class="st4"/>
			</g>
		</g>
		<g id="group5-9" transform="translate(195.415,389.374) rotate(180)" v:mID="5" v:groupContext="group">
			<title>Sheet.5</title>
			<g id="shape6-10" v:mID="6" v:groupContext="shape">
				<title>Sheet.6</title>
				<path d="M0 315 L177.41 315 L0 315 Z" class="st2"/>
			</g>
			<g id="shape7-12" v:mID="7" v:groupContext="shape">
				<title>Sheet.7</title>
				<path d="M0 315 L177.41 315 L0 315 Z" class="st3"/>
				<path d="M0 315 L177.41 315" class="st4"/>
			</g>
		</g>
		<g id="group8-15" transform="translate(195.415,425.918) rotate(180)" v:mID="8" v:groupContext="group">
			<title>Sheet.8</title>
			<g id="shape9-16" v:mID="9" v:groupContext="shape">
				<title>Sheet.9</title>
				<path d="M0 315 L177.41 315 L0 315 Z" class="st2"/>
			</g>
			<g id="shape10-18" v:mID="10" v:groupContext="shape">
				<title>Sheet.10</title>
				<path d="M0 315 L177.41 315 L0 315 Z" class="st3"/>
				<path d="M0 315 L177.41 315" class="st4"/>
			</g>
		</g>
		<g id="group11-21" transform="translate(195.415,462.463) rotate(180)" v:mID="11" v:groupContext="group">
			<title>Sheet.11</title>
			<g id="shape12-22" v:mID="12" v:groupContext="shape">
				<title>Sheet.12</title>
				<path d="M0 315 L177.41 315 L0 315 Z" class="st2"/>
			</g>
			<g id="shape13-24" v:mID="13" v:groupContext="shape">
				<title>Sheet.13</title>
				<path d="M0 315 L177.41 315 L0 315 Z" class="st3"/>
				<path d="M0 315 L177.41 315" class="st4"/>
			</g>
		</g>
		<g id="group14-27" transform="translate(195.415,499.007) rotate(180)" v:mID="14" v:groupContext="group">
			<title>Sheet.14</title>
			<g id="shape15-28" v:mID="15" v:groupContext="shape">
				<title>Sheet.15</title>
				<path d="M0 315 L177.41 315 L0 315 Z" class="st2"/>
			</g>
			<g id="shape16-30" v:mID="16" v:groupContext="shape">
				<title>Sheet.16</title>
				<path d="M0 315 L177.41 315 L0 315 Z" class="st3"/>
				<path d="M0 315 L177.41 315" class="st4"/>
			</g>
		</g>
		<g id="group20-33" transform="translate(537.823,206.847) rotate(90)" v:mID="20" v:groupContext="group">
			<title>Sheet.20</title>
			<g id="shape21-34" v:mID="21" v:groupContext="shape">
				<title>Sheet.21</title>
				<path d="M0 315 L88.32 315 L0 315 Z" class="st2"/>
			</g>
			<g id="shape22-36" v:mID="22" v:groupContext="shape">
				<title>Sheet.22</title>
				<path d="M0 315 L88.32 315 L0 315 Z" class="st3"/>
				<path d="M0 315 L88.32 315" class="st4"/>
			</g>
		</g>
		<g id="shape23-39" v:mID="23" v:groupContext="shape" transform="translate(180.946,-225.89)">
			<title>Sheet.23</title>
			<desc>D3</desc>
			<v:userDefs/>
			<v:textBlock v:margins="rect(4,4,4,4)"/>
			<v:textRect cx="27.4082" cy="298.496" width="54.83" height="33.0078"/>
			<rect x="0" y="281.992" width="54.8164" height="33.0078" class="st5"/>
			<text x="22.96" y="303.3" class="st6" v:langID="1033"><v:paragraph v:horizAlign="1"/><v:tabList/>0</text>		</g>
		<g id="shape24-42" v:mID="24" v:groupContext="shape" transform="translate(180.946,-188.167)">
			<title>Sheet.24</title>
			<desc>D2</desc>
			<v:userDefs/>
			<v:textBlock v:margins="rect(4,4,4,4)"/>
			<v:textRect cx="27.4082" cy="298.496" width="54.83" height="33.0078"/>
			<rect x="0" y="281.992" width="54.8164" height="33.0078" class="st5"/>
			<text x="22.96" y="303.3" class="st6" v:langID="1033"><v:paragraph v:horizAlign="1"/><v:tabList/>1</text>		</g>
		<g id="shape25-45" v:mID="25" v:groupContext="shape" transform="translate(180.946,-150.444)">
			<title>Sheet.25</title>
			<desc>D1</desc>
			<v:userDefs/>
			<v:textBlock v:margins="rect(4,4,4,4)"/>
			<v:textRect cx="27.4082" cy="298.496" width="54.83" height="33.0078"/>
			<rect x="0" y="281.992" width="54.8164" height="33.0078" class="st5"/>
			<text x="22.96" y="303.3" class="st6" v:langID="1033"><v:paragraph v:horizAlign="1"/><v:tabList/>2</text>		</g>
		<g id="shape26-48" v:mID="26" v:groupContext="shape" transform="translate(180.946,-112.721)">
			<title>Sheet.26</title>
			<desc>D0</desc>
			<v:userDefs/>
			<v:textBlock v:margins="rect(4,4,4,4)"/>
			<v:textRect cx="27.4082" cy="298.496" width="54.83" height="33.0078"/>
			<rect x="0" y="281.992" width="54.8164" height="33.0078" class="st5"/>
			<text x="22.96" y="303.3" class="st6" v:langID="1033"><v:paragraph v:horizAlign="1"/><v:tabList/>3</text>		</g>
		<g id="shape27-51" v:mID="27" v:groupContext="shape" transform="translate(189,-11.7717)">
			<title>Sheet.27</title>
			<desc>S1</desc>
			<v:userDefs/>
			<v:textBlock v:margins="rect(4,4,4,4)"/>
			<v:textRect cx="25.1242" cy="299.772" width="50.25" height="30.4567"/>
			<rect x="0" y="284.543" width="50.2483" height="30.4567" class="st5"/>
			<text x="20.68" y="304.57" class="st6" v:langID="1033"><v:paragraph v:horizAlign="1"/><v:tabList/>1</text>		</g>
		<g id="shape28-54" v:mID="28" v:groupContext="shape" transform="translate(189,-50.5433)">
			<title>Sheet.28</title>
			<desc>S0</desc>
			<v:userDefs/>
			<v:textBlock v:margins="rect(4,4,4,4)"/>
			<v:textRect cx="25.1242" cy="299.772" width="50.25" height="30.4567"/>
			<rect x="0" y="284.543" width="50.2483" height="30.4567" class="st5"/>
			<text x="20.68" y="304.57" class="st6" v:langID="1033"><v:paragraph v:horizAlign="1"/><v:tabList/>0</text>		</g>
		<g id="shape29-57" v:mID="29" v:groupContext="shape" transform="translate(318.752,-169.821)">
			<title>Sheet.29</title>
			<desc>f</desc>
			<v:userDefs/>
			<v:textBlock v:margins="rect(4,4,4,4)"/>
			<v:textRect cx="25.1242" cy="299.012" width="50.25" height="31.9762"/>
			<rect x="0" y="283.024" width="50.2483" height="31.9762" class="st5"/>
			<text x="20.24" y="303.81" class="st6" v:langID="1033"><v:paragraph v:horizAlign="1"/><v:tabList/>F</text>		</g>
		<g id="group17-60" transform="translate(223.32,612) rotate(180)" v:mID="17" v:groupContext="group">
			<title>Sheet.17</title>
			<g id="shape18-61" v:mID="18" v:groupContext="shape">
				<title>Sheet.18</title>
				<path d="M0 315 L88.32 315 L0 315 Z" class="st2"/>
			</g>
			<g id="shape19-63" v:mID="19" v:groupContext="shape">
				<title>Sheet.19</title>
				<path d="M0 315 L88.32 315 L0 315 Z" class="st3"/>
				<path d="M0 315 L88.32 315" class="st4"/>
			</g>
		</g>
		<g id="group30-66" transform="translate(223.32,576) rotate(180)" v:mID="30" v:groupContext="group">
			<title>Sheet.30</title>
			<g id="shape31-67" v:mID="31" v:groupContext="shape">
				<title>Sheet.31</title>
				<path d="M0 315 L88.32 315 L0 315 Z" class="st2"/>
			</g>
			<g id="shape32-69" v:mID="32" v:groupContext="shape">
				<title>Sheet.32</title>
				<path d="M0 315 L88.32 315 L0 315 Z" class="st3"/>
				<path d="M0 315 L88.32 315" class="st4"/>
			</g>
		</g>
	</g>
</svg>
