<?xml version="1.0" encoding="UTF-8" standalone="no"?>
<!DOCTYPE svg PUBLIC "-//W3C//DTD SVG 1.0//EN" "http://www.w3.org/TR/2001/REC-SVG-20010904/DTD/svg10.dtd">
<!-- Generated by Microsoft Visio 11.0, SVG Export, v1.0 bases.svg Page-1 -->
<svg xmlns="http://www.w3.org/2000/svg" xmlns:xlink="http://www.w3.org/1999/xlink" xmlns:ev="http://www.w3.org/2001/xml-events"
		xmlns:v="http://schemas.microsoft.com/visio/2003/SVGExtensions/" width="4.5in" height="3in" viewBox="0 0 324 216"
		xml:space="preserve" color-interpolation-filters="sRGB" class="st6">
	<v:documentProperties v:langID="1033" v:viewMarkup="false">
		<v:userDefs>
			<v:ud v:nameU="msvNoAutoConnect" v:val="VT0(1):26"/>
		</v:userDefs>
	</v:documentProperties>

	<style type="text/css">
	<![CDATA[
		.st1 {fill:#ffffff;stroke:#000000;stroke-linecap:round;stroke-linejoin:round;stroke-width:3.12}
		.st2 {fill:#000000;font-family:Arial;font-size:1.33333em;font-weight:bold}
		.st3 {font-size:1em}
		.st4 {marker-end:url(#mrkr4-25);marker-start:url(#mrkr4-23);stroke:#000000;stroke-linecap:round;stroke-linejoin:round;stroke-width:3}
		.st5 {fill:#000000;fill-opacity:1;stroke:#000000;stroke-opacity:1;stroke-width:0.54347826086957}
		.st6 {fill:none;fill-rule:evenodd;font-size:12px;overflow:visible;stroke-linecap:square;stroke-miterlimit:3}
	]]>
	</style>

	<defs id="Markers">
		<g id="lend4">
			<path d="M 2 1 L 0 0 L 2 -1 L 2 1 " style="stroke:none"/>
		</g>
		<marker id="mrkr4-23" class="st5" v:arrowType="4" v:arrowSize="2" v:setback="3.56" refX="3.56" orient="auto"
				markerUnits="strokeWidth" overflow="visible">
			<use xlink:href="#lend4" transform="scale(1.84) "/>
		</marker>
		<marker id="mrkr4-25" class="st5" v:arrowType="4" v:arrowSize="2" v:setback="3.68" refX="-3.68" orient="auto"
				markerUnits="strokeWidth" overflow="visible">
			<use xlink:href="#lend4" transform="scale(-1.84,-1.84) "/>
		</marker>
	</defs>
	<g v:mID="0" v:index="1" v:groupContext="foregroundPage">
		<title>Page-1</title>
		<v:pageProperties v:drawingScale="1" v:pageScale="1" v:drawingUnits="19" v:shadowOffsetX="9" v:shadowOffsetY="-9"/>
		<v:layer v:name="Connector" v:index="0"/>
		<g id="shape1-1" v:mID="1" v:groupContext="shape" transform="translate(18,-129.886)">
			<title>Cloud</title>
			<desc>Binary 1010</desc>
			<v:userDefs>
				<v:ud v:nameU="solsh"/>
				<v:ud v:nameU="shapetype" v:val="VT0(1):26"/>
				<v:ud v:nameU="shapelook" v:val="VT0(2):26"/>
				<v:ud v:nameU="visVersion" v:val="VT0(14):26"/>
			</v:userDefs>
			<v:textBlock v:margins="rect(0,0,0,0)"/>
			<v:textRect cx="60.75" cy="181.943" width="121.5" height="68.1136"/>
			<path d="M45.13 157.26 A19.2313 17.5062 0 0 1 79.06 157.03 A14.1154 12.8492 0 0 1 103.34 161.28 A14.196 12.9225 0 0 1
						 120.1 167.8 A10.7087 9.74806 0 0 1 114.41 179.62 A12.0934 11.0086 0 0 1 105.13 199.94 A21.777 19.8235 0
						 0 1 74.81 210.17 A27.427 24.9667 0 0 1 36.75 207.69 A15.0936 13.7396 0 0 1 10.2 196.61 A10.9067 9.92829
						 0 0 1 10.25 176.79 A9.33202 8.4949 0 1 1 17.78 161.25 A14.6296 13.3172 0 0 1 45.13 157.26 Z" class="st1"/>
			<text x="35.85" y="177.14" class="st2" v:langID="1033"><v:paragraph v:horizAlign="1"/><v:tabList/>Binary<v:newlineChar/><tspan
						x="42.95" dy="1.2em" class="st3">1010</tspan></text>		</g>
		<g id="shape2-5" v:mID="2" v:groupContext="shape" transform="translate(184.5,-129.886)">
			<title>Cloud.2</title>
			<desc>Hex A</desc>
			<v:userDefs>
				<v:ud v:nameU="solsh"/>
				<v:ud v:nameU="shapetype" v:val="VT0(1):26"/>
				<v:ud v:nameU="shapelook" v:val="VT0(2):26"/>
				<v:ud v:nameU="visVersion" v:val="VT0(14):26"/>
			</v:userDefs>
			<v:textBlock v:margins="rect(0,0,0,0)"/>
			<v:textRect cx="60.75" cy="181.943" width="121.5" height="68.1136"/>
			<path d="M45.13 157.26 A19.2313 17.5062 0 0 1 79.06 157.03 A14.1154 12.8492 0 0 1 103.34 161.28 A14.196 12.9225 0 0 1
						 120.1 167.8 A10.7087 9.74806 0 0 1 114.41 179.62 A12.0934 11.0086 0 0 1 105.13 199.94 A21.777 19.8235 0
						 0 1 74.81 210.17 A27.427 24.9667 0 0 1 36.75 207.69 A15.0936 13.7396 0 0 1 10.2 196.61 A10.9067 9.92829
						 0 0 1 10.25 176.79 A9.33202 8.4949 0 1 1 17.78 161.25 A14.6296 13.3172 0 0 1 45.13 157.26 Z" class="st1"/>
			<text x="46.07" y="177.14" class="st2" v:langID="1033"><v:paragraph v:horizAlign="1"/><v:tabList/>Hex<v:newlineChar/><tspan
						x="54.97" dy="1.2em" class="st3">A</tspan></text>		</g>
		<g id="shape3-9" v:mID="3" v:groupContext="shape" transform="translate(18,-14.8295)">
			<title>Cloud.3</title>
			<desc>Octal 12</desc>
			<v:userDefs>
				<v:ud v:nameU="solsh"/>
				<v:ud v:nameU="shapetype" v:val="VT0(1):26"/>
				<v:ud v:nameU="shapelook" v:val="VT0(2):26"/>
				<v:ud v:nameU="visVersion" v:val="VT0(14):26"/>
			</v:userDefs>
			<v:textBlock v:margins="rect(0,0,0,0)"/>
			<v:textRect cx="60.75" cy="181.943" width="121.5" height="68.1136"/>
			<path d="M45.13 157.26 A19.2313 17.5062 0 0 1 79.06 157.03 A14.1154 12.8492 0 0 1 103.34 161.28 A14.196 12.9225 0 0 1
						 120.1 167.8 A10.7087 9.74806 0 0 1 114.41 179.62 A12.0934 11.0086 0 0 1 105.13 199.94 A21.777 19.8235 0
						 0 1 74.81 210.17 A27.427 24.9667 0 0 1 36.75 207.69 A15.0936 13.7396 0 0 1 10.2 196.61 A10.9067 9.92829
						 0 0 1 10.25 176.79 A9.33202 8.4949 0 1 1 17.78 161.25 A14.6296 13.3172 0 0 1 45.13 157.26 Z" class="st1"/>
			<text x="40.74" y="177.14" class="st2" v:langID="1033"><v:paragraph v:horizAlign="1"/><v:tabList/>Octal<v:newlineChar/><tspan
						x="51.85" dy="1.2em" class="st3">12</tspan></text>		</g>
		<g id="shape4-13" v:mID="4" v:groupContext="shape" transform="translate(184.5,-14.8295)">
			<title>Cloud.4</title>
			<desc>Decimal 10</desc>
			<v:userDefs>
				<v:ud v:nameU="solsh"/>
				<v:ud v:nameU="shapetype" v:val="VT0(1):26"/>
				<v:ud v:nameU="shapelook" v:val="VT0(2):26"/>
				<v:ud v:nameU="visVersion" v:val="VT0(14):26"/>
			</v:userDefs>
			<v:textBlock v:margins="rect(0,0,0,0)"/>
			<v:textRect cx="60.75" cy="181.943" width="121.5" height="68.1136"/>
			<path d="M45.13 157.26 A19.2313 17.5062 0 0 1 79.06 157.03 A14.1154 12.8492 0 0 1 103.34 161.28 A14.196 12.9225 0 0 1
						 120.1 167.8 A10.7087 9.74806 0 0 1 114.41 179.62 A12.0934 11.0086 0 0 1 105.13 199.94 A21.777 19.8235 0
						 0 1 74.81 210.17 A27.427 24.9667 0 0 1 36.75 207.69 A15.0936 13.7396 0 0 1 10.2 196.61 A10.9067 9.92829
						 0 0 1 10.25 176.79 A9.33202 8.4949 0 1 1 17.78 161.25 A14.6296 13.3172 0 0 1 45.13 157.26 Z" class="st1"/>
			<text x="30.07" y="177.14" class="st2" v:langID="1033"><v:paragraph v:horizAlign="1"/><v:tabList/>Decimal<v:newlineChar/><tspan
						x="51.85" dy="1.2em" class="st3">10</tspan></text>		</g>
		<g id="shape5-17" v:mID="5" v:groupContext="shape" v:layerMember="0" transform="translate(206.37,-76.2885)">
			<title>Dynamic connector</title>
			<path d="M-8.79 209.94 L-9.09 209.73 L-80.47 160.52" class="st4"/>
		</g>
		<g id="shape6-26" v:mID="6" v:groupContext="shape" v:layerMember="0" transform="translate(69.75,-82.9432)">
			<title>Dynamic connector.6</title>
			<path d="M9 205.32 L9 204.96 L9 180.1" class="st4"/>
		</g>
		<g id="shape7-33" v:mID="7" v:groupContext="shape" v:layerMember="0" transform="translate(184.5,-154.943)">
			<title>Dynamic connector.7</title>
			<path d="M-10.68 207 L-11.04 207 L-33.96 207" class="st4"/>
		</g>
	</g>
</svg>
