<?xml version="1.0" encoding="UTF-8" standalone="no"?>
<!DOCTYPE svg PUBLIC "-//W3C//DTD SVG 1.0//EN" "http://www.w3.org/TR/2001/REC-SVG-20010904/DTD/svg10.dtd">
<!-- Generated by Microsoft Visio 11.0, SVG Export, v1.0 binary-hands.svg svg1 -->
<svg xmlns="http://www.w3.org/2000/svg" xmlns:xlink="http://www.w3.org/1999/xlink" xmlns:ev="http://www.w3.org/2001/xml-events"
		xmlns:v="http://schemas.microsoft.com/visio/2003/SVGExtensions/" width="6in" height="3in" viewBox="0 0 432 216"
		xml:space="preserve" color-interpolation-filters="sRGB" class="st5">
	<v:documentProperties v:langID="1033" v:viewMarkup="false"/>

	<style type="text/css">
	<![CDATA[
		.st1 {fill:none;stroke:#000000;stroke-linecap:butt;stroke-width:4.37143}
		.st2 {fill:none;stroke:none;stroke-linecap:round;stroke-linejoin:round;stroke-width:0.75}
		.st3 {fill:#000000;font-family:Arial;font-size:1.33333em;font-weight:bold}
		.st4 {baseline-shift:32.4948%;font-size:0.649895em}
		.st5 {fill:none;fill-rule:evenodd;font-size:12px;overflow:visible;stroke-linecap:square;stroke-miterlimit:3}
	]]>
	</style>

	<g v:mID="0" v:index="1" v:groupContext="foregroundPage">
		<title>svg1</title>
		<v:pageProperties v:drawingScale="1" v:pageScale="1" v:drawingUnits="19" v:shadowOffsetX="9" v:shadowOffsetY="-9"/>
		<g id="shape1-1" v:mID="1" v:groupContext="shape" transform="translate(240.309,-8)">
			<title>path1</title>
			<path d="M62.95 53.95 C60.81 54.12 58.64 55.45 56.57 58.39 C55.42 77.1 62.59 95.05 66.56 113.1 C72.52 123.28 63.12 121.83
						 59.64 114.39 C51.78 104.14 45.64 92.78 39.91 81.15 C38.34 66.74 14.62 69.54 22.39 84.12 C24.51 95.09 28.81
						 105.75 33.58 115.89 C41.9 126.95 48.14 139.24 51.81 152.64 C54.46 171.4 36.73 152.17 30.35 148.28 C22.35
						 141.8 8.61 134.89 0 143.76 C5.94 149.21 11.85 154.72 17.02 160.93 C26.8 169.78 30.76 183.59 41.71 190.95
						 C53.12 198.7 66.47 205.23 75.21 216 L137.88 216 C137.48 205.73 141.01 195.38 142.78 185.26 C146.68 170.94
						 142.38 156.52 141.03 142.26 C143.62 126.76 154.09 113.84 158.23 98.71 C162.38 83.5 141.29 87.43 140.92 99.8
						 C134.8 107.21 130.8 130.85 119.15 125.31 C117.12 111.94 118.56 98.25 117.06 84.79 C118.5 74.78 110.85 55.86
						 99.08 65.99 C99.08 75.4 99.08 84.8 99.08 94.22 C97.83 101.3 103.3 125.84 91.49 117.46 C83.76 104.78 82.32
						 89.49 77.46 75.65 C77.68 67.56 70.58 53.36 62.95 53.95 Z" class="st1"/>
		</g>
		<g id="shape2-3" v:mID="2" v:groupContext="shape" transform="translate(33.5,-2.92517)">
			<title>path2906</title>
			<path d="M91.35 50.47 C89.01 50.48 86.42 52.06 83.72 55.95 C79.24 72.72 76.94 90.15 69.82 106.15 C67.81 117.75 61.19
						 112.66 61.8 103.3 C58.25 87.88 62.25 70.51 56.03 56.19 C38.48 48.93 41.32 72.86 41.3 83.45 C40.22 95.68
						 43.5 109.94 41.04 120.86 C28.86 113.02 24.95 96.54 17.78 84.4 C0 72.09 5.39 100.53 11.91 108.2 C19.22 121.11
						 21.36 136.04 18.94 150.59 C15.64 165.22 16.21 180.1 19.62 194.56 C18.38 201.89 16.38 209.01 13.96 216 L76.9
						 216 C83.27 205.85 99.14 208.35 107.39 198.88 C121.68 191.04 134.27 180.77 147.53 171.38 C154.16 162.91 181.15
						 159.36 172.01 146.53 C155.84 139.17 140.93 153.2 126.97 159.45 C113.4 170.85 107.91 153.83 108.39 142.62
						 C109.47 115.85 137.22 97.43 134.5 69.69 C123.29 54.67 114.46 79.18 110.43 87.93 C104.41 97.8 98.4 115.15
						 88.75 118.08 C90.64 103.54 98.84 90.42 99.11 75.48 C103.65 67.19 98.96 50.43 91.35 50.47 Z" class="st1"/>
		</g>
		<g id="shape3-5" v:mID="3" v:groupContext="shape" transform="translate(378,-143)">
			<title>Sheet.3</title>
			<desc>20</desc>
			<v:textBlock v:margins="rect(4,4,4,4)"/>
			<v:textRect cx="15.5" cy="206" width="31" height="20"/>
			<rect x="0" y="196" width="31" height="20" class="st2"/>
			<text x="8.16" y="210.8" class="st3" v:langID="1033"><v:paragraph v:horizAlign="1"/><v:tabList/>2<tspan dy="-0.235em"
						class="st4" v:baseFontSize="16">0</tspan></text>		</g>
		<g id="shape4-9" v:mID="4" v:groupContext="shape" transform="translate(335.5,-170)">
			<title>Sheet.4</title>
			<desc>21</desc>
			<v:textBlock v:margins="rect(4,4,4,4)"/>
			<v:textRect cx="15.5" cy="206" width="31" height="20"/>
			<rect x="0" y="196" width="31" height="20" class="st2"/>
			<text x="8.16" y="210.8" class="st3" v:langID="1033"><v:paragraph v:horizAlign="1"/><v:tabList/>2<tspan dy="-0.235em"
						class="st4" v:baseFontSize="16">1</tspan></text>		</g>
		<g id="shape5-13" v:mID="5" v:groupContext="shape" transform="translate(285.5,-178)">
			<title>Sheet.5</title>
			<desc>22</desc>
			<v:textBlock v:margins="rect(4,4,4,4)"/>
			<v:textRect cx="15.5" cy="206" width="31" height="20"/>
			<rect x="0" y="196" width="31" height="20" class="st2"/>
			<text x="8.16" y="210.8" class="st3" v:langID="1033"><v:paragraph v:horizAlign="1"/><v:tabList/>2<tspan dy="-0.235em"
						class="st4" v:baseFontSize="16">2</tspan></text>		</g>
		<g id="shape6-17" v:mID="6" v:groupContext="shape" transform="translate(245.5,-161)">
			<title>Sheet.6</title>
			<desc>23</desc>
			<v:textBlock v:margins="rect(4,4,4,4)"/>
			<v:textRect cx="15.5" cy="206" width="31" height="20"/>
			<rect x="0" y="196" width="31" height="20" class="st2"/>
			<text x="8.16" y="210.8" class="st3" v:langID="1033"><v:paragraph v:horizAlign="1"/><v:tabList/>2<tspan dy="-0.235em"
						class="st4" v:baseFontSize="16">3</tspan></text>		</g>
		<g id="shape7-21" v:mID="7" v:groupContext="shape" transform="translate(225,-89)">
			<title>Sheet.7</title>
			<desc>24</desc>
			<v:textBlock v:margins="rect(4,4,4,4)"/>
			<v:textRect cx="15.5" cy="206" width="31" height="20"/>
			<rect x="0" y="196" width="31" height="20" class="st2"/>
			<text x="8.16" y="210.8" class="st3" v:langID="1033"><v:paragraph v:horizAlign="1"/><v:tabList/>2<tspan dy="-0.235em"
						class="st4" v:baseFontSize="16">4</tspan></text>		</g>
		<g id="shape8-25" v:mID="8" v:groupContext="shape" transform="translate(189,-87)">
			<title>Sheet.8</title>
			<desc>25</desc>
			<v:textBlock v:margins="rect(4,4,4,4)"/>
			<v:textRect cx="15.5" cy="206" width="31" height="20"/>
			<rect x="0" y="196" width="31" height="20" class="st2"/>
			<text x="8.16" y="210.8" class="st3" v:langID="1033"><v:paragraph v:horizAlign="1"/><v:tabList/>2<tspan dy="-0.235em"
						class="st4" v:baseFontSize="16">5</tspan></text>		</g>
		<g id="shape9-29" v:mID="9" v:groupContext="shape" transform="translate(155.5,-161)">
			<title>Sheet.9</title>
			<desc>26</desc>
			<v:textBlock v:margins="rect(4,4,4,4)"/>
			<v:textRect cx="15.5" cy="206" width="31" height="20"/>
			<rect x="0" y="196" width="31" height="20" class="st2"/>
			<text x="8.16" y="210.8" class="st3" v:langID="1033"><v:paragraph v:horizAlign="1"/><v:tabList/>2<tspan dy="-0.235em"
						class="st4" v:baseFontSize="16">6</tspan></text>		</g>
		<g id="shape10-33" v:mID="10" v:groupContext="shape" transform="translate(110.5,-178)">
			<title>Sheet.10</title>
			<desc>27</desc>
			<v:textBlock v:margins="rect(4,4,4,4)"/>
			<v:textRect cx="15.5" cy="206" width="31" height="20"/>
			<rect x="0" y="196" width="31" height="20" class="st2"/>
			<text x="8.16" y="210.8" class="st3" v:langID="1033"><v:paragraph v:horizAlign="1"/><v:tabList/>2<tspan dy="-0.235em"
						class="st4" v:baseFontSize="16">7</tspan></text>		</g>
		<g id="shape11-37" v:mID="11" v:groupContext="shape" transform="translate(69.5,-170)">
			<title>Sheet.11</title>
			<desc>28</desc>
			<v:textBlock v:margins="rect(4,4,4,4)"/>
			<v:textRect cx="15.5" cy="206" width="31" height="20"/>
			<rect x="0" y="196" width="31" height="20" class="st2"/>
			<text x="8.16" y="210.8" class="st3" v:langID="1033"><v:paragraph v:horizAlign="1"/><v:tabList/>2<tspan dy="-0.235em"
						class="st4" v:baseFontSize="16">8</tspan></text>		</g>
		<g id="shape12-41" v:mID="12" v:groupContext="shape" transform="translate(18,-143)">
			<title>Sheet.12</title>
			<desc>29</desc>
			<v:textBlock v:margins="rect(4,4,4,4)"/>
			<v:textRect cx="15.5" cy="206" width="31" height="20"/>
			<rect x="0" y="196" width="31" height="20" class="st2"/>
			<text x="8.16" y="210.8" class="st3" v:langID="1033"><v:paragraph v:horizAlign="1"/><v:tabList/>2<tspan dy="-0.235em"
						class="st4" v:baseFontSize="16">9</tspan></text>		</g>
	</g>
</svg>
