<?xml version="1.0" encoding="UTF-8" standalone="no"?>
<!DOCTYPE svg PUBLIC "-//W3C//DTD SVG 1.0//EN" "http://www.w3.org/TR/2001/REC-SVG-20010904/DTD/svg10.dtd">
<!-- Generated by Microsoft Visio 11.0, SVG Export, v1.0 gates.svg svg2 -->
<svg xmlns="http://www.w3.org/2000/svg" xmlns:xlink="http://www.w3.org/1999/xlink" xmlns:ev="http://www.w3.org/2001/xml-events"
		xmlns:v="http://schemas.microsoft.com/visio/2003/SVGExtensions/" width="6in" height="4in" viewBox="0 0 432 288"
		xml:space="preserve" color-interpolation-filters="sRGB" class="st13">
	<v:documentProperties v:langID="1033" v:viewMarkup="false"/>

	<style type="text/css">
	<![CDATA[
		.st1 {fill:none}
		.st2 {stroke:#000000;stroke-linecap:butt;stroke-width:1.94784}
		.st3 {fill:none;stroke:#0000a9;stroke-linecap:butt;stroke-width:1.94784}
		.st4 {fill:none;stroke:#0000a9;stroke-linecap:butt;stroke-width:1.94783}
		.st5 {fill:none;stroke:#0000a9;stroke-linecap:butt;stroke-width:1.95}
		.st6 {stroke:#0000a9;stroke-linecap:round;stroke-linejoin:round;stroke-width:1.95}
		.st7 {fill:none;stroke:none;stroke-linecap:round;stroke-linejoin:round;stroke-width:0.75}
		.st8 {fill:#000000;font-family:Arial;font-size:1.33333em}
		.st9 {fill:#000000;stroke:none;stroke-linecap:round;stroke-linejoin:round;stroke-width:0.75}
		.st10 {fill:none;stroke:#000000;stroke-linecap:round;stroke-linejoin:round;stroke-width:1}
		.st11 {fill:#000000;stroke:#000000;stroke-linecap:round;stroke-linejoin:round;stroke-width:0.24}
		.st12 {fill:#000000;font-family:Arial;font-size:1.33333em;font-weight:bold}
		.st13 {fill:none;fill-rule:evenodd;font-size:12px;overflow:visible;stroke-linecap:square;stroke-miterlimit:3}
	]]>
	</style>

	<g v:mID="0" v:index="1" v:groupContext="foregroundPage">
		<title>svg2</title>
		<v:pageProperties v:drawingScale="1" v:pageScale="1" v:drawingUnits="19" v:shadowOffsetX="9" v:shadowOffsetY="-9"/>
		<v:layer v:name="Connector" v:index="0"/>
		<g id="shape3-1" v:mID="3" v:groupContext="shape" transform="translate(253.125,-195.3)">
			<title>path2928</title>
			<path d="M38.93 288 L0 288 L38.93 288 Z" class="st1"/>
			<path d="M38.93 288 L0 288" class="st2"/>
		</g>
		<g id="shape4-4" v:mID="4" v:groupContext="shape" transform="translate(253.125,-169.561)">
			<title>path2930</title>
			<path d="M38.93 288 L0 288 L38.93 288 Z" class="st1"/>
			<path d="M38.93 288 L0 288" class="st2"/>
		</g>
		<g id="shape6-7" v:mID="6" v:groupContext="shape" transform="translate(291.761,-159.983)">
			<title>path2898</title>
			<path d="M0 242.6 C12.5 242.7 25.03 242.3 37.52 243.11 C42.91 243.99 45.16 245.46 48.36 248.45 C53.53 253.47 55.4 261.28
						 54.79 268.18 C54.43 273.53 51.85 279.43 47.24 282.97 C44.54 285.02 41.44 286.3 37.41 287 C29.88 288 22.26
						 287.57 14.68 287.71 C9.79 287.71 4.89 287.71 0 287.82 C0 272.75 0 257.68 0 242.6 Z" class="st3"/>
		</g>
		<g id="shape7-9" v:mID="7" v:groupContext="shape" transform="translate(353.793,-183.02)">
			<title>path2932</title>
			<path d="M25.33 288 L0 288 L25.33 288 Z" class="st1"/>
			<path d="M25.33 288 L0 288" class="st2"/>
		</g>
		<g id="shape9-12" v:mID="9" v:groupContext="shape" transform="translate(347.551,-179.329)">
			<title>path2900</title>
			<path d="M6.64 284.55 A3.44332 3.32034 90 1 1 0 284.55 A3.44332 3.32034 90 1 1 6.64 284.55 Z" class="st4"/>
		</g>
		<g id="shape12-14" v:mID="12" v:groupContext="shape" transform="translate(55.125,-195.928)">
			<title>path2902</title>
			<path d="M34.92 288 L0 288 L34.92 288 Z" class="st1"/>
			<path d="M34.92 288 L0 288" class="st2"/>
		</g>
		<g id="shape13-17" v:mID="13" v:groupContext="shape" transform="translate(55.125,-170.189)">
			<title>path2904</title>
			<path d="M34.92 288 L0 288 L34.92 288 Z" class="st1"/>
			<path d="M34.92 288 L0 288" class="st2"/>
		</g>
		<g id="shape14-20" v:mID="14" v:groupContext="shape" transform="translate(144.83,-182.778)">
			<title>path2906</title>
			<path d="M27.3 288 L0 288 L27.3 288 Z" class="st1"/>
			<path d="M27.3 288 L0 288" class="st2"/>
		</g>
		<g id="shape15-23" v:mID="15" v:groupContext="shape" transform="translate(90.2209,-159.983)">
			<title>rect1358</title>
			<path d="M0 242.6 C12.5 242.7 25.03 242.3 37.52 243.11 C42.91 243.99 45.16 245.46 48.36 248.45 C53.53 253.47 55.4 261.28
						 54.79 268.18 C54.43 273.53 51.85 279.43 47.24 282.97 C44.54 285.02 41.44 286.3 37.41 287 C29.88 288 22.26
						 287.57 14.68 287.71 C9.79 287.71 4.89 287.71 0 287.82 C0 272.75 0 257.68 0 242.6 Z" class="st3"/>
		</g>
		<g id="shape20-25" v:mID="20" v:groupContext="shape" transform="translate(55.125,-130.137)">
			<title>path4490</title>
			<path d="M34.92 288 L0 288 L34.92 288 Z" class="st1"/>
			<path d="M34.92 288 L0 288" class="st2"/>
		</g>
		<g id="shape21-28" v:mID="21" v:groupContext="shape" transform="translate(55.125,-104.397)">
			<title>path4492</title>
			<path d="M34.92 288 L0 288 L34.92 288 Z" class="st1"/>
			<path d="M34.92 288 L0 288" class="st2"/>
		</g>
		<g id="shape23-31" v:mID="23" v:groupContext="shape" transform="translate(137.232,-116.835)">
			<title>path4502</title>
			<path d="M34.89 288 L0 288 L34.89 288 Z" class="st1"/>
			<path d="M34.89 288 L0 288" class="st2"/>
		</g>
		<g id="shape25-34" v:mID="25" v:groupContext="shape" transform="translate(85.2458,-92.8463)">
			<title>path2946</title>
			<path d="M0 239.25 C5.44 248.68 6.78 255.81 6.78 263.61 C6.78 273.03 4.42 280.34 0 288 C17.09 288 43.28 279.85 52.85
						 264.12 C43.18 249.5 16.82 239.25 0 239.25 Z" class="st5"/>
		</g>
		<g id="shape28-36" v:mID="28" v:groupContext="shape" transform="translate(252.037,-130.137)">
			<title>path4508</title>
			<path d="M37.57 288 L0 288 L37.57 288 Z" class="st1"/>
			<path d="M37.57 288 L0 288" class="st2"/>
		</g>
		<g id="shape29-39" v:mID="29" v:groupContext="shape" transform="translate(252.037,-104.397)">
			<title>path4510</title>
			<path d="M37.57 288 L0 288 L37.57 288 Z" class="st1"/>
			<path d="M37.57 288 L0 288" class="st2"/>
		</g>
		<g id="shape31-42" v:mID="31" v:groupContext="shape" transform="translate(344.793,-116.835)">
			<title>path4516</title>
			<path d="M34.33 288 L0 288 L34.33 288 Z" class="st1"/>
			<path d="M34.33 288 L0 288" class="st2"/>
		</g>
		<g id="shape33-45" v:mID="33" v:groupContext="shape" transform="translate(284.801,-92.8463)">
			<title>path4522</title>
			<path d="M0 239.25 C5.44 248.68 6.78 255.81 6.78 263.61 C6.78 273.03 4.42 280.34 0 288 C17.09 288 43.28 279.85 52.85
						 264.12 C43.18 249.5 16.82 239.25 0 239.25 Z" class="st5"/>
		</g>
		<g id="shape35-47" v:mID="35" v:groupContext="shape" transform="translate(338.1,-113.255)">
			<title>path6044</title>
			<path d="M6.64 284.55 A3.44332 3.32034 90 1 1 0 284.55 A3.44332 3.32034 90 1 1 6.64 284.55 Z" class="st4"/>
		</g>
		<g id="shape39-49" v:mID="39" v:groupContext="shape" transform="translate(335.793,-248.763)">
			<title>path6822</title>
			<path d="M43.33 288 L0 288 L43.33 288 Z" class="st1"/>
			<path d="M43.33 288 L0 288" class="st2"/>
		</g>
		<g id="shape41-52" v:mID="41" v:groupContext="shape" transform="translate(253.125,-248.325)">
			<title>path6828</title>
			<path d="M38.7 288 L0 288 L38.7 288 Z" class="st1"/>
			<path d="M38.7 288 L0 288" class="st2"/>
		</g>
		<g id="shape42-55" v:mID="42" v:groupContext="shape" transform="translate(291.293,-226.518)">
			<title>path6830</title>
			<path d="M37.66 266.26 L0 288 L0 244.52 L37.66 266.26 Z" class="st5"/>
		</g>
		<g id="shape43-57" v:mID="43" v:groupContext="shape" transform="translate(329.218,-245.017)">
			<title>path6832</title>
			<path d="M6.64 284.55 A3.44332 3.32034 90 1 1 0 284.55 A3.44332 3.32034 90 1 1 6.64 284.55 Z" class="st4"/>
		</g>
		<g id="shape45-59" v:mID="45" v:groupContext="shape" transform="translate(55.125,-58.1365)">
			<title>path6854</title>
			<path d="M34.92 288 L0 288 L34.92 288 Z" class="st1"/>
			<path d="M34.92 288 L0 288" class="st2"/>
		</g>
		<g id="shape46-62" v:mID="46" v:groupContext="shape" transform="translate(55.125,-32.3973)">
			<title>path6856</title>
			<path d="M34.92 288 L0 288 L34.92 288 Z" class="st1"/>
			<path d="M34.92 288 L0 288" class="st2"/>
		</g>
		<g id="shape48-65" v:mID="48" v:groupContext="shape" transform="translate(143.232,-44.8349)">
			<title>path6862</title>
			<path d="M28.89 288 L0 288 L28.89 288 Z" class="st1"/>
			<path d="M28.89 288 L0 288" class="st2"/>
		</g>
		<g id="shape50-68" v:mID="50" v:groupContext="shape" transform="translate(91.2458,-20.8463)">
			<title>path6868</title>
			<path d="M0 239.25 C5.44 248.68 6.78 255.81 6.78 263.61 C6.78 273.03 4.42 280.34 0 288 C17.09 288 43.28 279.85 52.85
						 264.12 C43.18 249.5 16.82 239.25 0 239.25 Z" class="st5"/>
		</g>
		<g id="shape52-70" v:mID="52" v:groupContext="shape" transform="translate(84.8555,-20.8338)">
			<title>path6874</title>
			<path d="M0 239.25 C5.44 248.68 6.78 255.81 6.78 263.61 C6.78 273.03 4.42 280.34 0 288 L0 239.25 Z" class="st1"/>
			<path d="M0 239.25 C5.44 248.68 6.78 255.81 6.78 263.61 C6.78 273.03 4.42 280.34 0 288" class="st6"/>
		</g>
		<g id="shape54-73" v:mID="54" v:groupContext="shape" transform="translate(253.125,-58.1365)">
			<title>path7638</title>
			<path d="M34.92 288 L0 288 L34.92 288 Z" class="st1"/>
			<path d="M34.92 288 L0 288" class="st2"/>
		</g>
		<g id="shape55-76" v:mID="55" v:groupContext="shape" transform="translate(253.125,-32.3973)">
			<title>path7640</title>
			<path d="M34.92 288 L0 288 L34.92 288 Z" class="st1"/>
			<path d="M34.92 288 L0 288" class="st2"/>
		</g>
		<g id="shape57-79" v:mID="57" v:groupContext="shape" transform="translate(348.854,-44.8349)">
			<title>path7646</title>
			<path d="M30.27 288 L0 288 L30.27 288 Z" class="st1"/>
			<path d="M30.27 288 L0 288" class="st2"/>
		</g>
		<g id="shape59-82" v:mID="59" v:groupContext="shape" transform="translate(289.246,-20.8463)">
			<title>path7652</title>
			<path d="M0 239.25 C5.44 248.68 6.78 255.81 6.78 263.61 C6.78 273.03 4.42 280.34 0 288 C17.09 288 43.28 279.85 52.85
						 264.12 C43.18 249.5 16.82 239.25 0 239.25 Z" class="st5"/>
		</g>
		<g id="shape61-84" v:mID="61" v:groupContext="shape" transform="translate(282.855,-20.8338)">
			<title>path7658</title>
			<path d="M0 239.25 C5.44 248.68 6.78 255.81 6.78 263.61 C6.78 273.03 4.42 280.34 0 288 L0 239.25 Z" class="st1"/>
			<path d="M0 239.25 C5.44 248.68 6.78 255.81 6.78 263.61 C6.78 273.03 4.42 280.34 0 288" class="st6"/>
		</g>
		<g id="shape62-87" v:mID="62" v:groupContext="shape" transform="translate(342.516,-41.4243)">
			<title>path7660</title>
			<path d="M6.64 284.55 A3.44332 3.32034 90 1 1 -0 284.55 A3.44332 3.32034 90 1 1 6.64 284.55 Z" class="st4"/>
		</g>
		<g id="shape102-89" v:mID="102" v:groupContext="shape" transform="translate(127.586,-248.325)">
			<title>path6806</title>
			<path d="M44.54 288 L0 288 L44.54 288 Z" class="st1"/>
			<path d="M44.54 288 L0 288" class="st2"/>
		</g>
		<g id="shape104-92" v:mID="104" v:groupContext="shape" transform="translate(55.125,-248.325)">
			<title>path6812</title>
			<path d="M34.79 288 L0 288 L34.79 288 Z" class="st1"/>
			<path d="M34.79 288 L0 288" class="st2"/>
		</g>
		<g id="shape105-95" v:mID="105" v:groupContext="shape" transform="translate(89.3775,-226.518)">
			<title>path6046</title>
			<path d="M37.66 266.26 L0 288 L0 244.52 L37.66 266.26 Z" class="st5"/>
		</g>
		<g id="shape1-97" v:mID="1" v:groupContext="shape" transform="translate(16.875,-237.259)">
			<title>Sheet.1</title>
			<desc>a</desc>
			<v:textBlock v:margins="rect(4,4,4,4)"/>
			<v:textRect cx="20.25" cy="278" width="40.5" height="20"/>
			<rect x="0" y="268" width="40.5" height="20" class="st7"/>
			<text x="15.8" y="282.8" class="st8" v:langID="1033"><v:paragraph v:horizAlign="1"/><v:tabList/>a</text>		</g>
		<g id="shape2-100" v:mID="2" v:groupContext="shape" transform="translate(214.875,-237.259)">
			<title>Sheet.2</title>
			<desc>a</desc>
			<v:textBlock v:margins="rect(4,4,4,4)"/>
			<v:textRect cx="20.25" cy="278" width="40.5" height="20"/>
			<rect x="0" y="268" width="40.5" height="20" class="st7"/>
			<text x="15.8" y="282.8" class="st8" v:langID="1033"><v:paragraph v:horizAlign="1"/><v:tabList/>a</text>		</g>
		<g id="shape5-103" v:mID="5" v:groupContext="shape" transform="translate(214.875,-184.259)">
			<title>Sheet.5</title>
			<desc>a</desc>
			<v:textBlock v:margins="rect(4,4,4,4)"/>
			<v:textRect cx="20.25" cy="278" width="40.5" height="20"/>
			<rect x="0" y="268" width="40.5" height="20" class="st7"/>
			<text x="15.8" y="282.8" class="st8" v:langID="1033"><v:paragraph v:horizAlign="1"/><v:tabList/>a</text>		</g>
		<g id="shape8-106" v:mID="8" v:groupContext="shape" transform="translate(214.875,-158.259)">
			<title>Sheet.8</title>
			<desc>b</desc>
			<v:textBlock v:margins="rect(4,4,4,4)"/>
			<v:textRect cx="20.25" cy="278" width="40.5" height="20"/>
			<rect x="0" y="268" width="40.5" height="20" class="st7"/>
			<text x="15.8" y="282.8" class="st8" v:langID="1033"><v:paragraph v:horizAlign="1"/><v:tabList/>b</text>		</g>
		<g id="shape10-109" v:mID="10" v:groupContext="shape" transform="translate(16.875,-158.259)">
			<title>Sheet.10</title>
			<desc>b</desc>
			<v:textBlock v:margins="rect(4,4,4,4)"/>
			<v:textRect cx="20.25" cy="278" width="40.5" height="20"/>
			<rect x="0" y="268" width="40.5" height="20" class="st7"/>
			<text x="15.8" y="282.8" class="st8" v:langID="1033"><v:paragraph v:horizAlign="1"/><v:tabList/>b</text>		</g>
		<g id="shape11-112" v:mID="11" v:groupContext="shape" transform="translate(16.875,-183.259)">
			<title>Sheet.11</title>
			<desc>a</desc>
			<v:textBlock v:margins="rect(4,4,4,4)"/>
			<v:textRect cx="20.25" cy="278" width="40.5" height="20"/>
			<rect x="0" y="268" width="40.5" height="20" class="st7"/>
			<text x="15.8" y="282.8" class="st8" v:langID="1033"><v:paragraph v:horizAlign="1"/><v:tabList/>a</text>		</g>
		<g id="shape16-115" v:mID="16" v:groupContext="shape" transform="translate(16.875,-121.259)">
			<title>Sheet.16</title>
			<desc>a</desc>
			<v:textBlock v:margins="rect(4,4,4,4)"/>
			<v:textRect cx="20.25" cy="278" width="40.5" height="20"/>
			<rect x="0" y="268" width="40.5" height="20" class="st7"/>
			<text x="15.8" y="282.8" class="st8" v:langID="1033"><v:paragraph v:horizAlign="1"/><v:tabList/>a</text>		</g>
		<g id="shape17-118" v:mID="17" v:groupContext="shape" transform="translate(16.875,-93.259)">
			<title>Sheet.17</title>
			<desc>b</desc>
			<v:textBlock v:margins="rect(4,4,4,4)"/>
			<v:textRect cx="20.25" cy="278" width="40.5" height="20"/>
			<rect x="0" y="268" width="40.5" height="20" class="st7"/>
			<text x="15.8" y="282.8" class="st8" v:langID="1033"><v:paragraph v:horizAlign="1"/><v:tabList/>b</text>		</g>
		<g id="shape18-121" v:mID="18" v:groupContext="shape" transform="translate(16.875,-50.259)">
			<title>Sheet.18</title>
			<desc>a</desc>
			<v:textBlock v:margins="rect(4,4,4,4)"/>
			<v:textRect cx="20.25" cy="278" width="40.5" height="20"/>
			<rect x="0" y="268" width="40.5" height="20" class="st7"/>
			<text x="15.8" y="282.8" class="st8" v:langID="1033"><v:paragraph v:horizAlign="1"/><v:tabList/>a</text>		</g>
		<g id="shape19-124" v:mID="19" v:groupContext="shape" transform="translate(16.875,-23.259)">
			<title>Sheet.19</title>
			<desc>b</desc>
			<v:textBlock v:margins="rect(4,4,4,4)"/>
			<v:textRect cx="20.25" cy="278" width="40.5" height="20"/>
			<rect x="0" y="268" width="40.5" height="20" class="st7"/>
			<text x="15.8" y="282.8" class="st8" v:langID="1033"><v:paragraph v:horizAlign="1"/><v:tabList/>b</text>		</g>
		<g id="shape22-127" v:mID="22" v:groupContext="shape" transform="translate(214.875,-121.259)">
			<title>Sheet.22</title>
			<desc>a</desc>
			<v:textBlock v:margins="rect(4,4,4,4)"/>
			<v:textRect cx="20.25" cy="278" width="40.5" height="20"/>
			<rect x="0" y="268" width="40.5" height="20" class="st7"/>
			<text x="15.8" y="282.8" class="st8" v:langID="1033"><v:paragraph v:horizAlign="1"/><v:tabList/>a</text>		</g>
		<g id="shape24-130" v:mID="24" v:groupContext="shape" transform="translate(214.875,-94.259)">
			<title>Sheet.24</title>
			<desc>b</desc>
			<v:textBlock v:margins="rect(4,4,4,4)"/>
			<v:textRect cx="20.25" cy="278" width="40.5" height="20"/>
			<rect x="0" y="268" width="40.5" height="20" class="st7"/>
			<text x="15.8" y="282.8" class="st8" v:langID="1033"><v:paragraph v:horizAlign="1"/><v:tabList/>b</text>		</g>
		<g id="shape26-133" v:mID="26" v:groupContext="shape" transform="translate(214.875,-49.259)">
			<title>Sheet.26</title>
			<desc>a</desc>
			<v:textBlock v:margins="rect(4,4,4,4)"/>
			<v:textRect cx="20.25" cy="278" width="40.5" height="20"/>
			<rect x="0" y="268" width="40.5" height="20" class="st7"/>
			<text x="15.8" y="282.8" class="st8" v:langID="1033"><v:paragraph v:horizAlign="1"/><v:tabList/>a</text>		</g>
		<g id="shape27-136" v:mID="27" v:groupContext="shape" transform="translate(214.875,-23.259)">
			<title>Sheet.27</title>
			<desc>b</desc>
			<v:textBlock v:margins="rect(4,4,4,4)"/>
			<v:textRect cx="20.25" cy="278" width="40.5" height="20"/>
			<rect x="0" y="268" width="40.5" height="20" class="st7"/>
			<text x="15.8" y="282.8" class="st8" v:langID="1033"><v:paragraph v:horizAlign="1"/><v:tabList/>b</text>		</g>
		<g id="shape37-139" v:mID="37" v:groupContext="shape" transform="translate(379.125,-237.259)">
			<title>Sheet.37</title>
			<desc>a</desc>
			<v:textBlock v:margins="rect(4,4,4,4)"/>
			<v:textRect cx="20.25" cy="278" width="40.5" height="20"/>
			<rect x="0" y="268" width="40.5" height="20" class="st7"/>
			<text x="4" y="282.8" class="st8" v:langID="1033"><v:paragraph/><v:tabList/>a</text>		</g>
		<g id="shape38-142" v:mID="38" v:groupContext="shape" transform="translate(379.125,-174.259)">
			<title>Sheet.38</title>
			<desc>ab</desc>
			<v:textBlock v:margins="rect(4,4,4,4)"/>
			<v:textRect cx="27" cy="278" width="54" height="20"/>
			<rect x="0" y="268" width="54" height="20" class="st7"/>
			<text x="4" y="282.8" class="st8" v:langID="1033"><v:paragraph/><v:tabList/>ab</text>		</g>
		<g id="shape40-145" v:mID="40" v:groupContext="shape" transform="translate(379.125,-104.259)">
			<title>Sheet.40</title>
			<desc>a+b</desc>
			<v:textBlock v:margins="rect(4,4,4,4)"/>
			<v:textRect cx="27" cy="278" width="54" height="20"/>
			<rect x="0" y="268" width="54" height="20" class="st7"/>
			<text x="4" y="282.8" class="st8" v:langID="1033"><v:paragraph/><v:tabList/>a+b</text>		</g>
		<g id="shape30-148" v:mID="30" v:groupContext="shape" transform="translate(172.125,-237.259)">
			<title>Sheet.30</title>
			<desc>a</desc>
			<v:textBlock v:margins="rect(4,4,4,4)"/>
			<v:textRect cx="20.25" cy="278" width="40.5" height="20"/>
			<rect x="0" y="268" width="40.5" height="20" class="st7"/>
			<text x="4" y="282.8" class="st8" v:langID="1033"><v:paragraph/><v:tabList/>a</text>		</g>
		<g id="shape32-151" v:mID="32" v:groupContext="shape" transform="translate(172.125,-174.259)">
			<title>Sheet.32</title>
			<desc>ab</desc>
			<v:textBlock v:margins="rect(4,4,4,4)"/>
			<v:textRect cx="27" cy="278" width="54" height="20"/>
			<rect x="0" y="268" width="54" height="20" class="st7"/>
			<text x="4" y="282.8" class="st8" v:langID="1033"><v:paragraph/><v:tabList/>ab</text>		</g>
		<g id="shape34-154" v:mID="34" v:groupContext="shape" transform="translate(172.125,-104.259)">
			<title>Sheet.34</title>
			<desc>a+b</desc>
			<v:textBlock v:margins="rect(4,4,4,4)"/>
			<v:textRect cx="27" cy="278" width="54" height="20"/>
			<rect x="0" y="268" width="54" height="20" class="st7"/>
			<text x="4" y="282.8" class="st8" v:langID="1033"><v:paragraph/><v:tabList/>a+b</text>		</g>
		<g id="shape53-157" v:mID="53" v:groupContext="shape" transform="translate(381.375,-54)">
			<title>Sheet.53</title>
			<rect x="0" y="286.031" width="37.125" height="1.96875" class="st9"/>
		</g>
		<g id="shape56-159" v:mID="56" v:groupContext="shape" transform="translate(381.375,-122.54)">
			<title>Sheet.56</title>
			<rect x="0" y="286.031" width="29.25" height="1.96875" class="st9"/>
		</g>
		<g id="shape58-161" v:mID="58" v:groupContext="shape" transform="translate(381.375,-192.29)">
			<title>Sheet.58</title>
			<rect x="0" y="286.031" width="22.5" height="1.96875" class="st9"/>
		</g>
		<g id="shape65-163" v:mID="65" v:groupContext="shape" transform="translate(381.375,-255.009)">
			<title>Sheet.65</title>
			<rect x="0" y="286.031" width="11.25" height="1.96875" class="st9"/>
		</g>
		<g id="group44-165" transform="translate(171,-34)" v:mID="44" v:groupContext="group">
			<title>Sheet.44</title>
			<g id="shape66-166" v:mID="66" v:groupContext="shape" transform="translate(27,0)">
				<title>Sheet.66</title>
				<desc>b</desc>
				<v:textBlock v:margins="rect(4,4,4,4)"/>
				<v:textRect cx="27" cy="278" width="54" height="20"/>
				<rect x="0" y="268" width="54" height="20" class="st7"/>
				<text x="4" y="282.8" class="st8" v:langID="1033"><v:paragraph/><v:tabList/>b</text>			</g>
			<g id="shape36-169" v:mID="36" v:groupContext="shape">
				<title>Sheet.36</title>
				<desc>a</desc>
				<v:textBlock v:margins="rect(4,4,4,4)"/>
				<v:textRect cx="27" cy="278" width="54" height="20"/>
				<rect x="0" y="268" width="54" height="20" class="st7"/>
				<text x="4" y="282.8" class="st8" v:langID="1033"><v:paragraph/><v:tabList/>a</text>			</g>
			<g id="group60-172" transform="translate(15.75,-5.85415)" v:mID="60" v:groupContext="group">
				<title>Sheet.60</title>
				<g id="shape63-173" v:mID="63" v:groupContext="shape">
					<title>Circle</title>
					<v:userDefs>
						<v:ud v:nameU="visVersion" v:val="VT0(14):26"/>
					</v:userDefs>
					<path d="M0 283.18 A4.82293 4.82293 0 1 1 9.65 283.18 A4.82293 4.82293 0 0 1 0 283.18 Z" class="st10"/>
				</g>
				<g id="shape64-175" v:mID="64" v:groupContext="shape" transform="translate(0.118898,-0.0882093)">
					<title>Cross</title>
					<v:userDefs>
						<v:ud v:nameU="ScaleFactor" v:val="VT0(1):26"/>
						<v:ud v:nameU="ControlX1" v:val="VT0(0):26"/>
						<v:ud v:nameU="ControlX2" v:val="VT0(0.05680900295324):1"/>
						<v:ud v:nameU="ControlY1" v:val="VT0(0.05520959295324):1"/>
						<v:ud v:nameU="ControlY2" v:val="VT0(0):26"/>
						<v:ud v:nameU="visVersion" v:val="VT0(14):26"/>
					</v:userDefs>
					<path d="M0 284.02 L4.09 284.02 L4.09 288 L5.44 288 L5.44 284.02 L9.53 284.02 L9.53 282.45 L5.44 282.45 L5.44
								 278.47 L4.09 278.47 L4.09 282.45 L0 282.45 L0 284.02 Z" class="st11"/>
				</g>
			</g>
		</g>
		<g id="group47-177" transform="translate(378,-34)" v:mID="47" v:groupContext="group">
			<title>Sheet.47</title>
			<g id="shape49-178" v:mID="49" v:groupContext="shape" transform="translate(27,0)">
				<title>Sheet.49</title>
				<desc>b</desc>
				<v:textBlock v:margins="rect(4,4,4,4)"/>
				<v:textRect cx="27" cy="278" width="54" height="20"/>
				<rect x="0" y="268" width="54" height="20" class="st7"/>
				<text x="4" y="282.8" class="st8" v:langID="1033"><v:paragraph/><v:tabList/>b</text>			</g>
			<g id="shape51-181" v:mID="51" v:groupContext="shape">
				<title>Sheet.51</title>
				<desc>a</desc>
				<v:textBlock v:margins="rect(4,4,4,4)"/>
				<v:textRect cx="27" cy="278" width="54" height="20"/>
				<rect x="0" y="268" width="54" height="20" class="st7"/>
				<text x="4" y="282.8" class="st8" v:langID="1033"><v:paragraph/><v:tabList/>a</text>			</g>
			<g id="group67-184" transform="translate(15.75,-5.85415)" v:mID="67" v:groupContext="group">
				<title>Sheet.67</title>
				<g id="shape68-185" v:mID="68" v:groupContext="shape">
					<title>Circle</title>
					<v:userDefs>
						<v:ud v:nameU="visVersion" v:val="VT0(14):26"/>
					</v:userDefs>
					<path d="M0 283.18 A4.82293 4.82293 0 1 1 9.65 283.18 A4.82293 4.82293 0 0 1 0 283.18 Z" class="st10"/>
				</g>
				<g id="shape69-187" v:mID="69" v:groupContext="shape" transform="translate(0.118898,-0.0882093)">
					<title>Cross</title>
					<v:userDefs>
						<v:ud v:nameU="ScaleFactor" v:val="VT0(1):26"/>
						<v:ud v:nameU="ControlX1" v:val="VT0(0):26"/>
						<v:ud v:nameU="ControlX2" v:val="VT0(0.05680900295324):1"/>
						<v:ud v:nameU="ControlY1" v:val="VT0(0.05520959295324):1"/>
						<v:ud v:nameU="ControlY2" v:val="VT0(0):26"/>
						<v:ud v:nameU="visVersion" v:val="VT0(14):26"/>
					</v:userDefs>
					<path d="M0 284.02 L4.09 284.02 L4.09 288 L5.44 288 L5.44 284.02 L9.53 284.02 L9.53 282.45 L5.44 282.45 L5.44
								 278.47 L4.09 278.47 L4.09 282.45 L0 282.45 L0 284.02 Z" class="st11"/>
				</g>
			</g>
		</g>
		<g id="shape70-189" v:mID="70" v:groupContext="shape" transform="translate(121.5,-268)">
			<title>Sheet.70</title>
			<desc>Buffer</desc>
			<v:textBlock v:margins="rect(4,4,4,4)"/>
			<v:textRect cx="29.25" cy="278" width="58.5" height="20"/>
			<rect x="0" y="268" width="58.5" height="20" class="st7"/>
			<text x="5.7" y="282.8" class="st12" v:langID="1033"><v:paragraph v:horizAlign="1"/><v:tabList/>Buffer</text>		</g>
		<g id="shape71-192" v:mID="71" v:groupContext="shape" transform="translate(137.25,-205)">
			<title>Sheet.71</title>
			<desc>AND</desc>
			<v:textBlock v:margins="rect(4,4,4,4)"/>
			<v:textRect cx="21.375" cy="278" width="42.75" height="20"/>
			<rect x="0" y="268" width="42.75" height="20" class="st7"/>
			<text x="4.04" y="282.8" class="st12" v:langID="1033"><v:paragraph v:horizAlign="1"/><v:tabList/>AND</text>		</g>
		<g id="shape72-195" v:mID="72" v:groupContext="shape" transform="translate(333,-205)">
			<title>Sheet.72</title>
			<desc>NAND</desc>
			<v:textBlock v:margins="rect(4,4,4,4)"/>
			<v:textRect cx="29.25" cy="278" width="58.5" height="20"/>
			<rect x="0" y="268" width="58.5" height="20" class="st7"/>
			<text x="6.14" y="282.8" class="st12" v:langID="1033"><v:paragraph v:horizAlign="1"/><v:tabList/>NAND</text>		</g>
		<g id="shape73-198" v:mID="73" v:groupContext="shape" transform="translate(137.25,-135)">
			<title>Sheet.73</title>
			<desc>OR</desc>
			<v:textBlock v:margins="rect(4,4,4,4)"/>
			<v:textRect cx="21.375" cy="278" width="42.75" height="20"/>
			<rect x="0" y="268" width="42.75" height="20" class="st7"/>
			<text x="9.38" y="282.8" class="st12" v:langID="1033"><v:paragraph v:horizAlign="1"/><v:tabList/>OR</text>		</g>
		<g id="shape74-201" v:mID="74" v:groupContext="shape" transform="translate(343.125,-135)">
			<title>Sheet.74</title>
			<desc>NOR</desc>
			<v:textBlock v:margins="rect(4,4,4,4)"/>
			<v:textRect cx="24.1875" cy="278" width="48.38" height="20"/>
			<rect x="0" y="268" width="48.375" height="20" class="st7"/>
			<text x="6.41" y="282.8" class="st12" v:langID="1033"><v:paragraph v:horizAlign="1"/><v:tabList/>NOR</text>		</g>
		<g id="shape75-204" v:mID="75" v:groupContext="shape" transform="translate(137.25,-61)">
			<title>Sheet.75</title>
			<desc>XOR</desc>
			<v:textBlock v:margins="rect(4,4,4,4)"/>
			<v:textRect cx="21.375" cy="278" width="42.75" height="20"/>
			<rect x="0" y="268" width="42.75" height="20" class="st7"/>
			<text x="4.04" y="282.8" class="st12" v:langID="1033"><v:paragraph v:horizAlign="1"/><v:tabList/>XOR</text>		</g>
		<g id="shape76-207" v:mID="76" v:groupContext="shape" transform="translate(334.125,-61)">
			<title>Sheet.76</title>
			<desc>XNOR</desc>
			<v:textBlock v:margins="rect(4,4,4,4)"/>
			<v:textRect cx="28.6875" cy="278" width="57.38" height="20"/>
			<rect x="0" y="268" width="57.375" height="20" class="st7"/>
			<text x="5.57" y="282.8" class="st12" v:langID="1033"><v:paragraph v:horizAlign="1"/><v:tabList/>XNOR</text>		</g>
		<g id="shape77-210" v:mID="77" v:groupContext="shape" transform="translate(346.5,-268)">
			<title>Sheet.77</title>
			<desc>NOT</desc>
			<v:textBlock v:margins="rect(4,4,4,4)"/>
			<v:textRect cx="22.5" cy="278" width="45" height="20"/>
			<rect x="0" y="268" width="45" height="20" class="st7"/>
			<text x="5.61" y="282.8" class="st12" v:langID="1033"><v:paragraph v:horizAlign="1"/><v:tabList/>NOT</text>		</g>
	</g>
</svg>
