<?xml version="1.0" encoding="UTF-8" standalone="no"?>
<!DOCTYPE svg PUBLIC "-//W3C//DTD SVG 1.0//EN" "http://www.w3.org/TR/2001/REC-SVG-20010904/DTD/svg10.dtd">
<!-- Generated by Microsoft Visio 11.0, SVG Export, v1.0 logic-representations.svg Page-1 -->
<svg xmlns="http://www.w3.org/2000/svg" xmlns:xlink="http://www.w3.org/1999/xlink" xmlns:ev="http://www.w3.org/2001/xml-events"
		xmlns:v="http://schemas.microsoft.com/visio/2003/SVGExtensions/" width="6in" height="3.75in" viewBox="0 0 432 270"
		xml:space="preserve" color-interpolation-filters="sRGB" class="st15">
	<v:documentProperties v:langID="1033">
		<v:userDefs>
			<v:ud v:nameU="msvNoAutoConnect" v:val="VT0(1):26"/>
		</v:userDefs>
	</v:documentProperties>

	<style type="text/css">
	<![CDATA[
		.st1 {fill:#ffffff;stroke:#000000;stroke-linecap:round;stroke-linejoin:round;stroke-width:3.12}
		.st2 {fill:#000000;font-family:Arial;font-size:1.33333em;font-weight:bold}
		.st3 {font-size:0.5em}
		.st4 {font-size:0.625004em}
		.st5 {stroke:#000000;stroke-linecap:round;stroke-linejoin:round;stroke-width:3}
		.st6 {fill:#ffffff;stroke:#000000;stroke-linecap:round;stroke-linejoin:round;stroke-width:3}
		.st7 {fill:none;stroke:none;stroke-linecap:round;stroke-linejoin:round;stroke-width:0.75}
		.st8 {font-size:1em}
		.st9 {stroke:#000000;stroke-linecap:round;stroke-linejoin:round;stroke-width:2.25}
		.st10 {stroke:#000000;stroke-linecap:round;stroke-linejoin:round;stroke-width:1.5}
		.st11 {fill:#bfbfbf;stroke:#000000;stroke-linecap:round;stroke-linejoin:round;stroke-width:2.25}
		.st12 {fill:#ffffff;stroke:none;stroke-linecap:round;stroke-linejoin:round;stroke-width:0.24}
		.st13 {fill:none;stroke:#000000;stroke-linecap:round;stroke-linejoin:round;stroke-width:2.25}
		.st14 {fill:#000000;font-family:Calibri;font-size:1.00001em;font-weight:bold}
		.st15 {fill:none;fill-rule:evenodd;font-size:12px;overflow:visible;stroke-linecap:square;stroke-miterlimit:3}
	]]>
	</style>

	<g v:mID="0" v:index="1" v:groupContext="foregroundPage">
		<title>Page-1</title>
		<v:pageProperties v:drawingScale="1" v:pageScale="1" v:drawingUnits="19" v:shadowOffsetX="9" v:shadowOffsetY="-9"/>
		<v:layer v:name="Electrical" v:index="0"/>
		<v:layer v:name="Connector" v:index="1"/>
		<g id="shape1-1" v:mID="1" v:groupContext="shape" transform="translate(3.6367,-168.748)">
			<title>Cloud</title>
			<desc>Truth table</desc>
			<v:userDefs>
				<v:ud v:nameU="solsh"/>
				<v:ud v:nameU="shapetype" v:val="VT0(1):26"/>
				<v:ud v:nameU="shapelook" v:val="VT0(2):26"/>
				<v:ud v:nameU="visVersion" v:val="VT0(14):26"/>
			</v:userDefs>
			<v:textBlock v:margins="rect(0,0,0,0)"/>
			<v:textRect cx="77.977" cy="222.794" width="155.93" height="94.5853"/>
			<path d="M57.93 188.52 A24.6801 24.3097 180 0 1 101.48 188.2 A18.1148 17.8429 180 0 1 132.63 194.11 A18.2181 17.9447
						 180 0 1 154.14 203.15 A13.7428 13.5365 180 0 1 146.84 219.57 A15.5198 15.2869 180 0 1 134.93 247.79 A27.9471
						 27.5278 180 0 1 96.03 261.98 A35.1979 34.6697 180 0 1 47.18 258.54 A19.37 19.0794 180 0 1 13.11 243.16 A13.9969
						 13.7868 180 0 1 13.17 215.64 A11.9773 11.7976 180 1 1 22.83 194.05 A18.7746 18.4929 180 0 1 57.93 188.52
						 Z" class="st1"/>
			<text x="36.65" y="203.59" class="st2" v:langID="1033"><v:paragraph v:horizAlign="1"/><v:tabList/>Truth table<v:newlineChar/><tspan
						x="69.75" dy="1.5em" class="st3">a b f<v:newlineChar/></tspan><tspan x="69.08" dy="1.2em" class="st3">0 0 1<v:newlineChar/></tspan><tspan
						x="69.08" dy="1.2em" class="st3">0 1 1<v:newlineChar/></tspan><tspan x="69.08" dy="1.2em" class="st3">1 0 1<v:newlineChar/></tspan><tspan
						x="69.08" dy="1.2em" class="st3">1 1 0</tspan></text>		</g>
		<g id="shape3-9" v:mID="3" v:groupContext="shape" transform="translate(4.5,-4.5)">
			<title>Cloud.3</title>
			<desc>Function table</desc>
			<v:userDefs>
				<v:ud v:nameU="solsh"/>
				<v:ud v:nameU="shapetype" v:val="VT0(1):26"/>
				<v:ud v:nameU="shapelook" v:val="VT0(2):26"/>
				<v:ud v:nameU="visVersion" v:val="VT0(14):26"/>
			</v:userDefs>
			<v:textBlock v:margins="rect(0,0,0,0)"/>
			<v:textRect cx="81.6904" cy="220.548" width="163.35" height="99.0854"/>
			<path d="M60.69 184.64 A25.8554 25.4663 180 0 1 106.31 184.31 A18.9774 18.6918 180 0 1 138.95 190.5 A19.0857 18.7984
						 180 0 1 161.48 199.97 A14.3972 14.1806 180 0 1 153.83 217.17 A16.2589 16.0142 180 0 1 141.35 246.73 A29.2779
						 28.8374 180 0 1 100.6 261.6 A36.8741 36.3192 180 0 1 49.43 258 A20.2925 19.9872 180 0 1 13.73 241.89 A14.6634
						 14.4427 180 0 1 13.8 213.06 A12.5477 12.3589 180 1 1 23.92 190.44 A19.6687 19.3727 180 0 1 60.69 184.64
						 Z" class="st1"/>
			<text x="27.03" y="207.35" class="st2" v:langID="1033"><v:paragraph v:horizAlign="1"/><v:tabList/>Function table<v:newlineChar/><tspan
						x="75.86" dy="1.38em" class="st4">a f<v:newlineChar/></tspan><tspan x="74.74" dy="1.2em" class="st4">0 1<v:newlineChar/></tspan><tspan
						x="74.47" dy="1.2em" class="st4">1 </tspan><tspan class="st4">b</tspan></text>		</g>
		<g id="group15-16" transform="translate(255.405,-4.52764)" v:mID="15" v:groupContext="group">
			<title>Sheet.15</title>
			<g id="shape4-17" v:mID="4" v:groupContext="shape">
				<title>Cloud.4</title>
				<desc>Circuit diagram</desc>
				<v:userDefs>
					<v:ud v:nameU="solsh"/>
					<v:ud v:nameU="shapetype" v:val="VT0(1):26"/>
					<v:ud v:nameU="shapelook" v:val="VT0(2):26"/>
					<v:ud v:nameU="visVersion" v:val="VT0(14):26"/>
				</v:userDefs>
				<v:textBlock v:margins="rect(0,0,0,0)"/>
				<v:textRect cx="84.4623" cy="220.576" width="168.9" height="99.03"/>
				<path d="M62.75 184.69 A26.7327 25.452 180 0 1 109.92 184.36 A19.6214 18.6814 180 0 1 143.66 190.55 A19.7333 18.7879
							 180 0 1 166.96 200.01 A14.8858 14.1726 180 0 1 159.05 217.2 A16.8106 16.0053 180 0 1 146.15 246.74 A30.2714
							 28.8213 180 0 1 104.01 261.6 A38.1253 36.2989 180 0 1 51.1 258 A20.981 19.976 180 0 1 14.2 241.9 A15.161
							 14.4347 180 0 1 14.27 213.09 A12.9735 12.352 180 1 1 24.73 190.48 A20.336 19.3619 180 0 1 62.75 184.69
							 Z" class="st1"/>
				<text x="25.78" y="206.18" class="st2" v:langID="1033"><v:paragraph v:horizAlign="1"/><v:tabList/>Circuit diagram<v:newlineChar/><v:newlineChar/></text>			</g>
			<g id="group5-20" transform="translate(57.2421,-17.9447)" v:mID="5" v:groupContext="group" v:layerMember="0">
				<v:custProps>
					<v:cp v:nameU="Input" v:lbl="No. of Inputs" v:type="1" v:format="2;3;4;5" v:sortKey="2" v:langID="1033"
							v:val="VT4(2)"/>
					<v:cp v:nameU="Type" v:lbl="Gate Type" v:type="1" v:format="OR;AND;NOR;NAND;XOR;XNOR" v:sortKey="1"
							v:langID="1033" v:val="VT4(NAND)"/>
					<v:cp v:nameU="Out" v:lbl="No. of Outputs" v:type="1" v:format="1;2;3" v:sortKey="3" v:langID="1033"
							v:val="VT4(1)"/>
				</v:custProps>
				<v:userDefs>
					<v:ud v:nameU="SubType" v:val="VT0(3):26"/>
					<v:ud v:nameU="Margin" v:val="VT0(0.11374261811024):1"/>
					<v:ud v:nameU="LimitHeight" v:val="VT0(0):26"/>
					<v:ud v:nameU="visVersion" v:val="VT0(14):26"/>
					<v:ud v:nameU="visDescription" v:val="VT4(Represents various forms of logic gates.)"/>
				</v:userDefs>
				<title>Logic gate 2</title>
				<g id="shape6-21" v:mID="6" v:groupContext="shape" v:layerMember="0" transform="translate(0,-8.18947)">
					<title>Sheet.6</title>
					<path d="M0 253.62 L32.76 253.62" class="st5"/>
					<path d="M0 270 L32.76 270" class="st5"/>
					<path d="M65.52 261.81 L32.76 261.81" class="st5"/>
				</g>
				<g id="shape7-26" v:mID="7" v:groupContext="shape" v:layerMember="0" transform="translate(11.4653,0)">
					<title>Sheet.7</title>
					<v:userDefs>
						<v:ud v:nameU="X" v:val="VT0(0.056871309055119):1"/>
					</v:userDefs>
					<path d="M42.59 253.62 A44.1096 27.0243 0 0 1 12.78 270 L0 270 A63.1984 38.7193 -180 0 0 0 237.24 L12.78 237.24
								 A43.5188 26.6623 0 0 1 42.59 253.62 Z" class="st6"/>
				</g>
				<g id="shape8-28" v:mID="8" v:groupContext="shape" v:layerMember="0" transform="translate(0,5.45965)">
					<title>Sheet.8</title>
				</g>
				<g id="shape9-30" v:mID="9" v:groupContext="shape" v:layerMember="0" transform="translate(44.3584,-4.11588)">
					<title>Sheet.9</title>
					<path d="M14.47 257.74 A2.45261 2.45261 -180 0 0 9.57 257.74 A2.45261 2.45261 -180 1 0 14.47 257.74 Z"
							class="st6"/>
				</g>
				<g id="shape10-32" v:mID="10" v:groupContext="shape" v:layerMember="0" transform="translate(11.4653,0)">
					<title>Sheet.10</title>
					<path d="M26.21 270 L0 270 L0 237.24 L26.21 237.24 A16.3789 16.3789 0 0 1 26.21 270 Z" class="st6"/>
				</g>
			</g>
			<g id="shape13-34" v:mID="13" v:groupContext="shape" transform="translate(32.595,-16.2224)">
				<title>Sheet.13</title>
				<desc>a b</desc>
				<v:textBlock v:margins="rect(4,4,4,4)"/>
				<v:textRect cx="9.125" cy="251.125" width="18.26" height="37.75"/>
				<rect x="0" y="232.25" width="18.25" height="37.75" class="st7"/>
				<text x="4.68" y="246.33" class="st2" v:langID="1033"><v:paragraph v:horizAlign="1"/><v:tabList/>a<v:newlineChar/><tspan
							x="4.24" dy="1.2em" class="st8">b</tspan></text>			</g>
			<g id="shape14-38" v:mID="14" v:groupContext="shape" transform="translate(124.595,-24.7224)">
				<title>Sheet.14</title>
				<desc>f</desc>
				<v:textBlock v:margins="rect(4,4,4,4)"/>
				<v:textRect cx="9.125" cy="260.73" width="18.26" height="18.54"/>
				<rect x="0" y="251.46" width="18.25" height="18.54" class="st7"/>
				<text x="6.46" y="265.53" class="st2" v:langID="1033"><v:paragraph v:horizAlign="1"/><v:tabList/>f</text>			</g>
		</g>
		<g id="group12-41" transform="translate(255.405,-166.5)" v:mID="12" v:groupContext="group">
			<title>Sheet.12</title>
			<g id="shape2-42" v:mID="2" v:groupContext="shape">
				<title>Cloud.2</title>
				<desc>Expression</desc>
				<v:userDefs>
					<v:ud v:nameU="solsh"/>
					<v:ud v:nameU="shapetype" v:val="VT0(1):26"/>
					<v:ud v:nameU="shapelook" v:val="VT0(2):26"/>
					<v:ud v:nameU="visVersion" v:val="VT0(14):26"/>
				</v:userDefs>
				<v:textBlock v:margins="rect(0,0,0,0)"/>
				<v:textRect cx="84.4623" cy="220.548" width="168.9" height="99.0854"/>
				<path d="M62.75 184.64 A26.7327 25.4663 180 0 1 109.92 184.31 A19.6214 18.6918 180 0 1 143.66 190.5 A19.7333 18.7984
							 180 0 1 166.96 199.97 A14.8858 14.1806 180 0 1 159.05 217.17 A16.8106 16.0142 180 0 1 146.15 246.73
							 A30.2714 28.8374 180 0 1 104.01 261.6 A38.1253 36.3192 180 0 1 51.1 258 A20.981 19.9872 180 0 1 14.2
							 241.89 A15.161 14.4427 180 0 1 14.27 213.06 A12.9735 12.3589 180 1 1 24.73 190.44 A20.336 19.3727 180
							 0 1 62.75 184.64 Z" class="st1"/>
				<text x="41.33" y="206.15" class="st2" v:langID="1033"><v:paragraph v:horizAlign="1"/><v:tabList/>Expression<v:newlineChar/><v:newlineChar/><tspan
							x="75.13" dy="2.4em" class="st8">ab</tspan></text>			</g>
			<g id="shape11-46" v:mID="11" v:groupContext="shape" v:layerMember="1" transform="translate(72,-30.5983)">
				<title>Dynamic connector</title>
				<path d="M0 261 L24.75 261" class="st9"/>
			</g>
		</g>
		<g id="shape16-49" v:mID="16" v:groupContext="shape" transform="translate(129.637,-87.7481)">
			<title>Cloud.16</title>
			<desc>Truth table</desc>
			<v:userDefs>
				<v:ud v:nameU="solsh"/>
				<v:ud v:nameU="shapetype" v:val="VT0(1):26"/>
				<v:ud v:nameU="shapelook" v:val="VT0(2):26"/>
				<v:ud v:nameU="visVersion" v:val="VT0(14):26"/>
			</v:userDefs>
			<v:textBlock v:margins="rect(0,0,0,0)"/>
			<v:textRect cx="77.977" cy="222.794" width="155.93" height="94.5853"/>
			<path d="M57.93 188.52 A24.6801 24.3097 180 0 1 101.48 188.2 A18.1148 17.8429 180 0 1 132.63 194.11 A18.2181 17.9447
						 180 0 1 154.14 203.15 A13.7428 13.5365 180 0 1 146.84 219.57 A15.5198 15.2869 180 0 1 134.93 247.79 A27.9471
						 27.5278 180 0 1 96.03 261.98 A35.1979 34.6697 180 0 1 47.18 258.54 A19.37 19.0794 180 0 1 13.11 243.16 A13.9969
						 13.7868 180 0 1 13.17 215.64 A11.9773 11.7976 180 1 1 22.83 194.05 A18.7746 18.4929 180 0 1 57.93 188.52
						 Z" class="st1"/>
			<text x="25.07" y="203.59" class="st2" v:langID="1033"><v:paragraph v:horizAlign="1"/><v:tabList/>Venn diagram<v:newlineChar/><tspan
						x="75.75" dy="1.2em" class="st8">.<v:newlineChar/></tspan><tspan x="75.75" dy="1.2em" class="st8">.</tspan><v:newlineChar/></text>		</g>
		<g id="shape17-54" v:mID="17" v:groupContext="shape" v:layerMember="1" transform="translate(81,-29.25)">
			<title>Dynamic connector</title>
			<path d="M4.5 261 L13.5 261" class="st10"/>
		</g>
		<g id="group24-57" transform="translate(179.114,-99.4803)" v:mID="24" v:groupContext="group">
			<title>Sheet.24</title>
			<g id="shape20-58" v:mID="20" v:groupContext="shape" transform="translate(0,-3.35531)">
				<title>Rectangle</title>
				<v:userDefs>
					<v:ud v:nameU="visVersion" v:val="VT0(14):26"/>
				</v:userDefs>
				<rect x="0" y="228.836" width="54.8858" height="41.1644" class="st11"/>
			</g>
			<g id="shape23-60" v:mID="23" v:groupContext="shape" transform="translate(23.3858,-17.75)">
				<title>Ellipse</title>
				<v:userDefs>
					<v:ud v:nameU="visVersion" v:val="VT0(14):26"/>
				</v:userDefs>
				<path d="M0 260.78 A4.5 9.22146 0 1 1 9 260.78 A4.5 9.22146 0 1 1 -0 260.78 Z" class="st12"/>
			</g>
			<g id="shape18-62" v:mID="18" v:groupContext="shape" transform="translate(9.88583,-15.5)">
				<title>Circle</title>
				<v:userDefs>
					<v:ud v:nameU="visVersion" v:val="VT0(14):26"/>
				</v:userDefs>
				<path d="M0 258.75 A11.25 11.25 0 0 1 22.5 258.75 A11.25 11.25 0 1 1 0 258.75 Z" class="st13"/>
			</g>
			<g id="shape19-64" v:mID="19" v:groupContext="shape" transform="translate(23.3858,-15.5)">
				<title>Circle.19</title>
				<v:userDefs>
					<v:ud v:nameU="visVersion" v:val="VT0(14):26"/>
				</v:userDefs>
				<path d="M0 258.75 A11.25 11.25 0 0 1 22.5 258.75 A11.25 11.25 0 1 1 0 258.75 Z" class="st13"/>
			</g>
			<g id="shape21-66" v:mID="21" v:groupContext="shape" transform="translate(14.243,0)">
				<title>Sheet.21</title>
				<desc>a</desc>
				<v:textBlock v:margins="rect(4,4,4,4)"/>
				<v:textRect cx="6.82143" cy="260" width="13.65" height="20"/>
				<rect x="0" y="250" width="13.6429" height="20" class="st7"/>
				<text x="4" y="263.6" class="st14" v:langID="1033"><v:paragraph v:horizAlign="1"/><v:tabList/>a</text>			</g>
			<g id="shape22-69" v:mID="22" v:groupContext="shape" transform="translate(27.743,0)">
				<title>Sheet.22</title>
				<desc>b</desc>
				<v:textBlock v:margins="rect(4,4,4,4)"/>
				<v:textRect cx="6.82143" cy="260" width="13.65" height="20"/>
				<rect x="0" y="250" width="13.6429" height="20" class="st7"/>
				<text x="4" y="263.6" class="st14" v:langID="1033"><v:paragraph v:horizAlign="1"/><v:tabList/>b</text>			</g>
		</g>
	</g>
</svg>
