<?xml version="1.0" encoding="UTF-8" standalone="no"?>
<!DOCTYPE svg PUBLIC "-//W3C//DTD SVG 1.0//EN" "http://www.w3.org/TR/2001/REC-SVG-20010904/DTD/svg10.dtd">
<!-- Generated by Microsoft Visio 11.0, SVG Export, v1.0 venn-diagram-operations.svg svg2 -->
<svg xmlns="http://www.w3.org/2000/svg" xmlns:xlink="http://www.w3.org/1999/xlink" xmlns:ev="http://www.w3.org/2001/xml-events"
		xmlns:v="http://schemas.microsoft.com/visio/2003/SVGExtensions/" width="4.25in" height="4in" viewBox="0 0 306 288"
		xml:space="preserve" color-interpolation-filters="sRGB" class="st13">
	<v:documentProperties v:langID="1033"/>

	<style type="text/css">
	<![CDATA[
		.st1 {fill:#bfbfbf;stroke:#000000;stroke-linecap:round;stroke-linejoin:round;stroke-width:2.25}
		.st2 {fill:#ffffff;stroke:none;stroke-linecap:round;stroke-linejoin:round;stroke-width:0.24}
		.st3 {fill:none;stroke:#000000;stroke-linecap:round;stroke-linejoin:round;stroke-width:2.25}
		.st4 {fill:none;stroke:none;stroke-linecap:round;stroke-linejoin:round;stroke-width:0.75}
		.st5 {fill:#000000;font-family:Calibri;font-size:1.00001em;font-weight:bold}
		.st6 {fill:#ffffff;stroke:#000000;stroke-linecap:round;stroke-linejoin:round;stroke-width:2.25}
		.st7 {fill:#bfbfbf;stroke:none;stroke-linecap:round;stroke-linejoin:round;stroke-width:0.24}
		.st8 {fill:#000000;font-family:Arial;font-size:1.33333em}
		.st9 {fill:#000000;font-family:Arial;font-size:1.33333em;font-weight:bold}
		.st10 {fill:#000000;stroke:none;stroke-linecap:round;stroke-linejoin:round;stroke-width:0.75}
		.st11 {fill:none;stroke:#000000;stroke-linecap:round;stroke-linejoin:round;stroke-width:1}
		.st12 {fill:#000000;stroke:#000000;stroke-linecap:round;stroke-linejoin:round;stroke-width:0.24}
		.st13 {fill:none;fill-rule:evenodd;font-size:12px;overflow:visible;stroke-linecap:square;stroke-miterlimit:3}
	]]>
	</style>

	<g v:mID="0" v:index="1" v:groupContext="foregroundPage">
		<title>svg2</title>
		<v:pageProperties v:drawingScale="1" v:pageScale="1" v:drawingUnits="19" v:shadowOffsetX="9" v:shadowOffsetY="-9"/>
		<v:layer v:name="Connector" v:index="0"/>
		<g id="group49-1" transform="translate(166.5,-155.493)" v:mID="49" v:groupContext="group">
			<title>Sheet.49</title>
			<g id="shape31-2" v:mID="31" v:groupContext="shape" transform="translate(0,-3.35531)">
				<title>Rectangle.31</title>
				<v:userDefs>
					<v:ud v:nameU="visVersion" v:val="VT0(14):26"/>
				</v:userDefs>
				<rect x="0" y="246.836" width="54.8858" height="41.1644" class="st1"/>
			</g>
			<g id="shape32-4" v:mID="32" v:groupContext="shape" transform="translate(23.3858,-17.75)">
				<title>Ellipse.32</title>
				<v:userDefs>
					<v:ud v:nameU="visVersion" v:val="VT0(14):26"/>
				</v:userDefs>
				<path d="M0 278.78 A4.5 9.22146 0 1 1 9 278.78 A4.5 9.22146 0 1 1 -0 278.78 Z" class="st2"/>
			</g>
			<g id="shape33-6" v:mID="33" v:groupContext="shape" transform="translate(9.88583,-15.5)">
				<title>Circle.33</title>
				<v:userDefs>
					<v:ud v:nameU="visVersion" v:val="VT0(14):26"/>
				</v:userDefs>
				<path d="M0 276.75 A11.25 11.25 0 0 1 22.5 276.75 A11.25 11.25 0 1 1 0 276.75 Z" class="st3"/>
			</g>
			<g id="shape34-8" v:mID="34" v:groupContext="shape" transform="translate(23.3858,-15.5)">
				<title>Circle.34</title>
				<v:userDefs>
					<v:ud v:nameU="visVersion" v:val="VT0(14):26"/>
				</v:userDefs>
				<path d="M0 276.75 A11.25 11.25 0 0 1 22.5 276.75 A11.25 11.25 0 1 1 0 276.75 Z" class="st3"/>
			</g>
			<g id="shape35-10" v:mID="35" v:groupContext="shape" transform="translate(14.243,0)">
				<title>Sheet.35</title>
				<desc>a</desc>
				<v:textBlock v:margins="rect(4,4,4,4)"/>
				<v:textRect cx="6.82143" cy="278" width="13.65" height="20"/>
				<rect x="0" y="268" width="13.6429" height="20" class="st4"/>
				<text x="4" y="281.6" class="st5" v:langID="1033"><v:paragraph v:horizAlign="1"/><v:tabList/>a</text>			</g>
			<g id="shape36-13" v:mID="36" v:groupContext="shape" transform="translate(27.743,5.68434E-014)">
				<title>Sheet.36</title>
				<desc>b</desc>
				<v:textBlock v:margins="rect(4,4,4,4)"/>
				<v:textRect cx="6.82143" cy="278" width="13.65" height="20"/>
				<rect x="0" y="268" width="13.6429" height="20" class="st4"/>
				<text x="4" y="281.6" class="st5" v:langID="1033"><v:paragraph v:horizAlign="1"/><v:tabList/>b</text>			</g>
		</g>
		<g id="group50-16" transform="translate(18,-155.493)" v:mID="50" v:groupContext="group">
			<title>Sheet.50</title>
			<g id="shape7-17" v:mID="7" v:groupContext="shape" transform="translate(0,-3.35531)">
				<title>Rectangle.23</title>
				<v:userDefs>
					<v:ud v:nameU="visVersion" v:val="VT0(14):26"/>
				</v:userDefs>
				<rect x="0" y="246.836" width="54.8858" height="41.1644" class="st6"/>
			</g>
			<g id="shape8-19" v:mID="8" v:groupContext="shape" transform="translate(23.3858,-17.75)">
				<title>Ellipse.24</title>
				<v:userDefs>
					<v:ud v:nameU="visVersion" v:val="VT0(14):26"/>
				</v:userDefs>
				<path d="M0 278.78 A4.5 9.22146 0 1 1 9 278.78 A4.5 9.22146 0 1 1 -0 278.78 Z" class="st7"/>
			</g>
			<g id="shape9-21" v:mID="9" v:groupContext="shape" transform="translate(9.88583,-15.5)">
				<title>Circle.25</title>
				<v:userDefs>
					<v:ud v:nameU="visVersion" v:val="VT0(14):26"/>
				</v:userDefs>
				<path d="M0 276.75 A11.25 11.25 0 0 1 22.5 276.75 A11.25 11.25 0 1 1 0 276.75 Z" class="st3"/>
			</g>
			<g id="shape10-23" v:mID="10" v:groupContext="shape" transform="translate(23.3858,-15.5)">
				<title>Circle.26</title>
				<v:userDefs>
					<v:ud v:nameU="visVersion" v:val="VT0(14):26"/>
				</v:userDefs>
				<path d="M0 276.75 A11.25 11.25 0 0 1 22.5 276.75 A11.25 11.25 0 1 1 0 276.75 Z" class="st3"/>
			</g>
			<g id="shape11-25" v:mID="11" v:groupContext="shape" transform="translate(14.243,0)">
				<title>Sheet.11</title>
				<desc>a</desc>
				<v:textBlock v:margins="rect(4,4,4,4)"/>
				<v:textRect cx="6.82143" cy="278" width="13.65" height="20"/>
				<rect x="0" y="268" width="13.6429" height="20" class="st4"/>
				<text x="4" y="281.6" class="st5" v:langID="1033"><v:paragraph v:horizAlign="1"/><v:tabList/>a</text>			</g>
			<g id="shape12-28" v:mID="12" v:groupContext="shape" transform="translate(27.743,5.68434E-014)">
				<title>Sheet.12</title>
				<desc>b</desc>
				<v:textBlock v:margins="rect(4,4,4,4)"/>
				<v:textRect cx="6.82143" cy="278" width="13.65" height="20"/>
				<rect x="0" y="268" width="13.6429" height="20" class="st4"/>
				<text x="4" y="281.6" class="st5" v:langID="1033"><v:paragraph v:horizAlign="1"/><v:tabList/>b</text>			</g>
		</g>
		<g id="group2-31" transform="translate(18,-224.24)" v:mID="2" v:groupContext="group">
			<title>Sheet.2</title>
			<g id="shape1-32" v:mID="1" v:groupContext="shape" transform="translate(0,-3.35531)">
				<title>Rectangle.16</title>
				<v:userDefs>
					<v:ud v:nameU="visVersion" v:val="VT0(14):26"/>
				</v:userDefs>
				<rect x="0" y="246.836" width="54.8858" height="41.1644" class="st6"/>
			</g>
			<g id="shape3-34" v:mID="3" v:groupContext="shape" transform="translate(9.88583,-15.5)">
				<title>Circle.18</title>
				<v:userDefs>
					<v:ud v:nameU="visVersion" v:val="VT0(14):26"/>
				</v:userDefs>
				<path d="M0 276.75 A11.25 11.25 0 0 1 22.5 276.75 A11.25 11.25 0 1 1 0 276.75 Z" class="st1"/>
			</g>
			<g id="shape4-36" v:mID="4" v:groupContext="shape" transform="translate(23.3858,-15.5)">
				<title>Circle.19</title>
				<v:userDefs>
					<v:ud v:nameU="visVersion" v:val="VT0(14):26"/>
				</v:userDefs>
				<path d="M0 276.75 A11.25 11.25 0 0 1 22.5 276.75 A11.25 11.25 0 1 1 0 276.75 Z" class="st3"/>
			</g>
			<g id="shape5-38" v:mID="5" v:groupContext="shape" transform="translate(14.243,0)">
				<title>Sheet.5</title>
				<desc>a</desc>
				<v:textBlock v:margins="rect(4,4,4,4)"/>
				<v:textRect cx="6.82143" cy="278" width="13.65" height="20"/>
				<rect x="0" y="268" width="13.6429" height="20" class="st4"/>
				<text x="4" y="281.6" class="st5" v:langID="1033"><v:paragraph v:horizAlign="1"/><v:tabList/>a</text>			</g>
			<g id="shape6-41" v:mID="6" v:groupContext="shape" transform="translate(27.743,5.68434E-014)">
				<title>Sheet.6</title>
				<desc>b</desc>
				<v:textBlock v:margins="rect(4,4,4,4)"/>
				<v:textRect cx="6.82143" cy="278" width="13.65" height="20"/>
				<rect x="0" y="268" width="13.6429" height="20" class="st4"/>
				<text x="4" y="281.6" class="st5" v:langID="1033"><v:paragraph v:horizAlign="1"/><v:tabList/>b</text>			</g>
		</g>
		<g id="group51-44" transform="translate(166.5,-224.24)" v:mID="51" v:groupContext="group">
			<title>Sheet.51</title>
			<g id="shape25-45" v:mID="25" v:groupContext="shape" transform="translate(0,-3.35531)">
				<title>Rectangle.25</title>
				<v:userDefs>
					<v:ud v:nameU="visVersion" v:val="VT0(14):26"/>
				</v:userDefs>
				<rect x="0" y="246.836" width="54.8858" height="41.1644" class="st1"/>
			</g>
			<g id="shape26-47" v:mID="26" v:groupContext="shape" transform="translate(23.3858,-17.75)">
				<title>Ellipse.26</title>
				<v:userDefs>
					<v:ud v:nameU="visVersion" v:val="VT0(14):26"/>
				</v:userDefs>
				<path d="M0 278.78 A4.5 9.22146 0 1 1 9 278.78 A4.5 9.22146 0 1 1 -0 278.78 Z" class="st2"/>
			</g>
			<g id="shape27-49" v:mID="27" v:groupContext="shape" transform="translate(9.88583,-15.5)">
				<title>Circle.27</title>
				<v:userDefs>
					<v:ud v:nameU="visVersion" v:val="VT0(14):26"/>
				</v:userDefs>
				<path d="M0 276.75 A11.25 11.25 0 0 1 22.5 276.75 A11.25 11.25 0 1 1 0 276.75 Z" class="st6"/>
			</g>
			<g id="shape28-51" v:mID="28" v:groupContext="shape" transform="translate(23.3858,-15.5)">
				<title>Circle.28</title>
				<v:userDefs>
					<v:ud v:nameU="visVersion" v:val="VT0(14):26"/>
				</v:userDefs>
				<path d="M0 276.75 A11.25 11.25 0 0 1 22.5 276.75 A11.25 11.25 0 1 1 0 276.75 Z" class="st3"/>
			</g>
			<g id="shape29-53" v:mID="29" v:groupContext="shape" transform="translate(14.243,0)">
				<title>Sheet.29</title>
				<desc>a</desc>
				<v:textBlock v:margins="rect(4,4,4,4)"/>
				<v:textRect cx="6.82143" cy="278" width="13.65" height="20"/>
				<rect x="0" y="268" width="13.6429" height="20" class="st4"/>
				<text x="4" y="281.6" class="st5" v:langID="1033"><v:paragraph v:horizAlign="1"/><v:tabList/>a</text>			</g>
			<g id="shape30-56" v:mID="30" v:groupContext="shape" transform="translate(27.743,5.68434E-014)">
				<title>Sheet.30</title>
				<desc>b</desc>
				<v:textBlock v:margins="rect(4,4,4,4)"/>
				<v:textRect cx="6.82143" cy="278" width="13.65" height="20"/>
				<rect x="0" y="268" width="13.6429" height="20" class="st4"/>
				<text x="4" y="281.6" class="st5" v:langID="1033"><v:paragraph v:horizAlign="1"/><v:tabList/>b</text>			</g>
		</g>
		<g id="group58-59" transform="translate(18,-18)" v:mID="58" v:groupContext="group">
			<title>Sheet.58</title>
			<g id="shape19-60" v:mID="19" v:groupContext="shape" transform="translate(0,-3.35531)">
				<title>Rectangle.19</title>
				<v:userDefs>
					<v:ud v:nameU="visVersion" v:val="VT0(14):26"/>
				</v:userDefs>
				<rect x="0" y="246.836" width="54.8858" height="41.1644" class="st6"/>
			</g>
			<g id="shape21-62" v:mID="21" v:groupContext="shape" transform="translate(9.88583,-15.5)">
				<title>Circle.21</title>
				<v:userDefs>
					<v:ud v:nameU="visVersion" v:val="VT0(14):26"/>
				</v:userDefs>
				<path d="M0 276.75 A11.25 11.25 0 0 1 22.5 276.75 A11.25 11.25 0 1 1 0 276.75 Z" class="st1"/>
			</g>
			<g id="shape20-64" v:mID="20" v:groupContext="shape" transform="translate(23.3858,-17.5285)">
				<title>Ellipse.20</title>
				<v:userDefs>
					<v:ud v:nameU="visVersion" v:val="VT0(14):26"/>
				</v:userDefs>
				<path d="M0 278.78 A4.5 9.22146 0 1 1 9 278.78 A4.5 9.22146 0 1 1 -0 278.78 Z" class="st2"/>
			</g>
			<g id="shape23-66" v:mID="23" v:groupContext="shape" transform="translate(14.243,0)">
				<title>Sheet.23</title>
				<desc>a</desc>
				<v:textBlock v:margins="rect(4,4,4,4)"/>
				<v:textRect cx="6.82143" cy="278" width="13.65" height="20"/>
				<rect x="0" y="268" width="13.6429" height="20" class="st4"/>
				<text x="4" y="281.6" class="st5" v:langID="1033"><v:paragraph v:horizAlign="1"/><v:tabList/>a</text>			</g>
			<g id="shape24-69" v:mID="24" v:groupContext="shape" transform="translate(27.743,0)">
				<title>Sheet.24</title>
				<desc>b</desc>
				<v:textBlock v:margins="rect(4,4,4,4)"/>
				<v:textRect cx="6.82143" cy="278" width="13.65" height="20"/>
				<rect x="0" y="268" width="13.6429" height="20" class="st4"/>
				<text x="4" y="281.6" class="st5" v:langID="1033"><v:paragraph v:horizAlign="1"/><v:tabList/>b</text>			</g>
			<g id="shape55-72" v:mID="55" v:groupContext="shape" transform="translate(23.625,-17.7785)">
				<title>Ellipse.55</title>
				<v:userDefs>
					<v:ud v:nameU="visVersion" v:val="VT0(14):26"/>
				</v:userDefs>
				<path d="M0 278.78 A4.5 9.22146 0 1 1 9 278.78 A4.5 9.22146 0 1 1 -0 278.78 Z" class="st2"/>
			</g>
			<g id="shape22-74" v:mID="22" v:groupContext="shape" transform="translate(23.3858,-15.5)">
				<title>Circle.22</title>
				<v:userDefs>
					<v:ud v:nameU="visVersion" v:val="VT0(14):26"/>
				</v:userDefs>
				<path d="M0 276.75 A11.25 11.25 0 0 1 22.5 276.75 A11.25 11.25 0 1 1 0 276.75 Z" class="st1"/>
			</g>
			<g id="shape56-76" v:mID="56" v:groupContext="shape" transform="translate(23.625,-17.7785)">
				<title>Ellipse.56</title>
				<v:userDefs>
					<v:ud v:nameU="visVersion" v:val="VT0(14):26"/>
				</v:userDefs>
				<path d="M0 278.78 A4.5 9.22146 0 1 1 9 278.78 A4.5 9.22146 0 1 1 -0 278.78 Z" class="st2"/>
			</g>
			<g id="shape54-78" v:mID="54" v:groupContext="shape" transform="translate(10.125,-15.5)">
				<title>Circle.54</title>
				<v:userDefs>
					<v:ud v:nameU="visVersion" v:val="VT0(14):26"/>
				</v:userDefs>
				<path d="M0 276.75 A11.25 11.25 0 0 1 22.5 276.75 A11.25 11.25 0 1 1 0 276.75 Z" class="st3"/>
			</g>
			<g id="shape57-80" v:mID="57" v:groupContext="shape" transform="translate(23.625,-15.75)">
				<title>Circle.57</title>
				<v:userDefs>
					<v:ud v:nameU="visVersion" v:val="VT0(14):26"/>
				</v:userDefs>
				<path d="M0 276.75 A11.25 11.25 0 0 1 22.5 276.75 A11.25 11.25 0 1 1 0 276.75 Z" class="st3"/>
			</g>
		</g>
		<g id="group59-82" transform="translate(18,-86.7467)" v:mID="59" v:groupContext="group">
			<title>Sheet.59</title>
			<g id="shape13-83" v:mID="13" v:groupContext="shape" transform="translate(0,-3.35531)">
				<title>Rectangle.30</title>
				<v:userDefs>
					<v:ud v:nameU="visVersion" v:val="VT0(14):26"/>
				</v:userDefs>
				<rect x="0" y="246.836" width="54.8858" height="41.1644" class="st6"/>
			</g>
			<g id="shape14-85" v:mID="14" v:groupContext="shape" transform="translate(23.3858,-17.5285)">
				<title>Ellipse.31</title>
				<v:userDefs>
					<v:ud v:nameU="visVersion" v:val="VT0(14):26"/>
				</v:userDefs>
				<path d="M0 278.78 A4.5 9.22146 0 1 1 9 278.78 A4.5 9.22146 0 1 1 -0 278.78 Z" class="st2"/>
			</g>
			<g id="shape15-87" v:mID="15" v:groupContext="shape" transform="translate(9.88583,-15.5)">
				<title>Circle.32</title>
				<v:userDefs>
					<v:ud v:nameU="visVersion" v:val="VT0(14):26"/>
				</v:userDefs>
				<path d="M0 276.75 A11.25 11.25 0 0 1 22.5 276.75 A11.25 11.25 0 1 1 0 276.75 Z" class="st1"/>
			</g>
			<g id="shape16-89" v:mID="16" v:groupContext="shape" transform="translate(23.3858,-15.5)">
				<title>Circle.33</title>
				<v:userDefs>
					<v:ud v:nameU="visVersion" v:val="VT0(14):26"/>
				</v:userDefs>
				<path d="M0 276.75 A11.25 11.25 0 0 1 22.5 276.75 A11.25 11.25 0 1 1 0 276.75 Z" class="st1"/>
			</g>
			<g id="shape17-91" v:mID="17" v:groupContext="shape" transform="translate(14.243,0)">
				<title>Sheet.17</title>
				<desc>a</desc>
				<v:textBlock v:margins="rect(4,4,4,4)"/>
				<v:textRect cx="6.82143" cy="278" width="13.65" height="20"/>
				<rect x="0" y="268" width="13.6429" height="20" class="st4"/>
				<text x="4" y="281.6" class="st5" v:langID="1033"><v:paragraph v:horizAlign="1"/><v:tabList/>a</text>			</g>
			<g id="shape18-94" v:mID="18" v:groupContext="shape" transform="translate(27.743,0)">
				<title>Sheet.18</title>
				<desc>b</desc>
				<v:textBlock v:margins="rect(4,4,4,4)"/>
				<v:textRect cx="6.82143" cy="278" width="13.65" height="20"/>
				<rect x="0" y="268" width="13.6429" height="20" class="st4"/>
				<text x="4" y="281.6" class="st5" v:langID="1033"><v:paragraph v:horizAlign="1"/><v:tabList/>b</text>			</g>
			<g id="shape52-97" v:mID="52" v:groupContext="shape" transform="translate(10.125,-15.5)">
				<title>Circle.52</title>
				<v:userDefs>
					<v:ud v:nameU="visVersion" v:val="VT0(14):26"/>
				</v:userDefs>
				<path d="M0 276.75 A11.25 11.25 0 0 1 22.5 276.75 A11.25 11.25 0 1 1 0 276.75 Z" class="st3"/>
			</g>
		</g>
		<g id="group60-99" transform="translate(166.5,-86.7467)" v:mID="60" v:groupContext="group">
			<title>Sheet.60</title>
			<g id="shape37-100" v:mID="37" v:groupContext="shape" transform="translate(0,-3.35531)">
				<title>Rectangle.37</title>
				<v:userDefs>
					<v:ud v:nameU="visVersion" v:val="VT0(14):26"/>
				</v:userDefs>
				<rect x="0" y="246.836" width="54.8858" height="41.1644" class="st1"/>
			</g>
			<g id="shape38-102" v:mID="38" v:groupContext="shape" transform="translate(23.3858,-17.5285)">
				<title>Ellipse.38</title>
				<v:userDefs>
					<v:ud v:nameU="visVersion" v:val="VT0(14):26"/>
				</v:userDefs>
				<path d="M0 278.78 A4.5 9.22146 0 1 1 9 278.78 A4.5 9.22146 0 1 1 -0 278.78 Z" class="st2"/>
			</g>
			<g id="shape39-104" v:mID="39" v:groupContext="shape" transform="translate(9.88583,-15.5)">
				<title>Circle.39</title>
				<v:userDefs>
					<v:ud v:nameU="visVersion" v:val="VT0(14):26"/>
				</v:userDefs>
				<path d="M0 276.75 A11.25 11.25 0 0 1 22.5 276.75 A11.25 11.25 0 1 1 0 276.75 Z" class="st6"/>
			</g>
			<g id="shape40-106" v:mID="40" v:groupContext="shape" transform="translate(23.3858,-15.5)">
				<title>Circle.40</title>
				<v:userDefs>
					<v:ud v:nameU="visVersion" v:val="VT0(14):26"/>
				</v:userDefs>
				<path d="M0 276.75 A11.25 11.25 0 0 1 22.5 276.75 A11.25 11.25 0 1 1 0 276.75 Z" class="st6"/>
			</g>
			<g id="shape41-108" v:mID="41" v:groupContext="shape" transform="translate(14.243,0)">
				<title>Sheet.41</title>
				<desc>a</desc>
				<v:textBlock v:margins="rect(4,4,4,4)"/>
				<v:textRect cx="6.82143" cy="278" width="13.65" height="20"/>
				<rect x="0" y="268" width="13.6429" height="20" class="st4"/>
				<text x="4" y="281.6" class="st5" v:langID="1033"><v:paragraph v:horizAlign="1"/><v:tabList/>a</text>			</g>
			<g id="shape42-111" v:mID="42" v:groupContext="shape" transform="translate(27.743,0)">
				<title>Sheet.42</title>
				<desc>b</desc>
				<v:textBlock v:margins="rect(4,4,4,4)"/>
				<v:textRect cx="6.82143" cy="278" width="13.65" height="20"/>
				<rect x="0" y="268" width="13.6429" height="20" class="st4"/>
				<text x="4" y="281.6" class="st5" v:langID="1033"><v:paragraph v:horizAlign="1"/><v:tabList/>b</text>			</g>
			<g id="shape53-114" v:mID="53" v:groupContext="shape" transform="translate(10.125,-15.5)">
				<title>Circle.53</title>
				<v:userDefs>
					<v:ud v:nameU="visVersion" v:val="VT0(14):26"/>
				</v:userDefs>
				<path d="M0 276.75 A11.25 11.25 0 0 1 22.5 276.75 A11.25 11.25 0 1 1 0 276.75 Z" class="st3"/>
			</g>
		</g>
		<g id="group44-116" transform="translate(166.5,-18)" v:mID="44" v:groupContext="group">
			<title>Sheet.44</title>
			<g id="shape62-117" v:mID="62" v:groupContext="shape" transform="translate(0,-3.35531)">
				<title>Rectangle.37</title>
				<v:userDefs>
					<v:ud v:nameU="visVersion" v:val="VT0(14):26"/>
				</v:userDefs>
				<rect x="0" y="246.836" width="54.8858" height="41.1644" class="st1"/>
			</g>
			<g id="shape64-119" v:mID="64" v:groupContext="shape" transform="translate(9.88583,-15.5)">
				<title>Circle.39</title>
				<v:userDefs>
					<v:ud v:nameU="visVersion" v:val="VT0(14):26"/>
				</v:userDefs>
				<path d="M0 276.75 A11.25 11.25 0 0 1 22.5 276.75 A11.25 11.25 0 1 1 0 276.75 Z" class="st6"/>
			</g>
			<g id="shape65-121" v:mID="65" v:groupContext="shape" transform="translate(23.3858,-15.5)">
				<title>Circle.40</title>
				<v:userDefs>
					<v:ud v:nameU="visVersion" v:val="VT0(14):26"/>
				</v:userDefs>
				<path d="M0 276.75 A11.25 11.25 0 0 1 22.5 276.75 A11.25 11.25 0 1 1 0 276.75 Z" class="st6"/>
			</g>
			<g id="shape63-123" v:mID="63" v:groupContext="shape" transform="translate(23.3858,-17.5285)">
				<title>Ellipse.38</title>
				<v:userDefs>
					<v:ud v:nameU="visVersion" v:val="VT0(14):26"/>
				</v:userDefs>
				<path d="M0 278.78 A4.5 9.22146 0 1 1 9 278.78 A4.5 9.22146 0 1 1 -0 278.78 Z" class="st7"/>
			</g>
			<g id="shape66-125" v:mID="66" v:groupContext="shape" transform="translate(14.243,0)">
				<title>Sheet.66</title>
				<desc>a</desc>
				<v:textBlock v:margins="rect(4,4,4,4)"/>
				<v:textRect cx="6.82143" cy="278" width="13.65" height="20"/>
				<rect x="0" y="268" width="13.6429" height="20" class="st4"/>
				<text x="4" y="281.6" class="st5" v:langID="1033"><v:paragraph v:horizAlign="1"/><v:tabList/>a</text>			</g>
			<g id="shape67-128" v:mID="67" v:groupContext="shape" transform="translate(27.743,0)">
				<title>Sheet.67</title>
				<desc>b</desc>
				<v:textBlock v:margins="rect(4,4,4,4)"/>
				<v:textRect cx="6.82143" cy="278" width="13.65" height="20"/>
				<rect x="0" y="268" width="13.6429" height="20" class="st4"/>
				<text x="4" y="281.6" class="st5" v:langID="1033"><v:paragraph v:horizAlign="1"/><v:tabList/>b</text>			</g>
			<g id="shape68-131" v:mID="68" v:groupContext="shape" transform="translate(10.125,-15.5)">
				<title>Circle.53</title>
				<v:userDefs>
					<v:ud v:nameU="visVersion" v:val="VT0(14):26"/>
				</v:userDefs>
				<path d="M0 276.75 A11.25 11.25 0 0 1 22.5 276.75 A11.25 11.25 0 1 1 0 276.75 Z" class="st3"/>
			</g>
			<g id="shape43-133" v:mID="43" v:groupContext="shape" transform="translate(23.625,-15.5098)">
				<title>Circle.43</title>
				<v:userDefs>
					<v:ud v:nameU="visVersion" v:val="VT0(14):26"/>
				</v:userDefs>
				<path d="M0 276.75 A11.25 11.25 0 0 1 22.5 276.75 A11.25 11.25 0 1 1 0 276.75 Z" class="st3"/>
			</g>
		</g>
		<g id="group45-135" transform="translate(78.75,-222.519)" v:mID="45" v:groupContext="group">
			<title>Sheet.45</title>
			<g id="shape102-136" v:mID="102" v:groupContext="shape" transform="translate(1.125,0)">
				<title>Sheet.102</title>
				<desc>a</desc>
				<v:userDefs/>
				<v:textBlock v:margins="rect(4,4,4,4)"/>
				<v:textRect cx="20.25" cy="278" width="40.5" height="20"/>
				<rect x="0" y="268" width="40.5" height="20" class="st4"/>
				<text x="4" y="282.8" class="st8" v:langID="1033"><v:paragraph/><v:tabList/>a</text>			</g>
			<g id="shape121-139" v:mID="121" v:groupContext="shape" transform="translate(0,-28.241)">
				<title>Sheet.121</title>
				<desc>Buffer</desc>
				<v:userDefs/>
				<v:textBlock v:margins="rect(4,4,4,4)"/>
				<v:textRect cx="29.25" cy="278" width="58.5" height="20"/>
				<rect x="0" y="268" width="58.5" height="20" class="st4"/>
				<text x="4" y="282.8" class="st9" v:langID="1033"><v:paragraph/><v:tabList/>Buffer</text>			</g>
		</g>
		<g id="group46-142" transform="translate(228.136,-222.519)" v:mID="46" v:groupContext="group">
			<title>Sheet.46</title>
			<g id="shape99-143" v:mID="99" v:groupContext="shape" transform="translate(3.375,0)">
				<title>Sheet.99</title>
				<desc>a</desc>
				<v:userDefs/>
				<v:textBlock v:margins="rect(4,4,4,4)"/>
				<v:textRect cx="20.25" cy="278" width="40.5" height="20"/>
				<rect x="0" y="268" width="40.5" height="20" class="st4"/>
				<text x="4" y="282.8" class="st8" v:langID="1033"><v:paragraph/><v:tabList/>a</text>			</g>
			<g id="shape108-146" v:mID="108" v:groupContext="shape" transform="translate(5.625,-17.7502)">
				<title>Sheet.108</title>
				<rect x="0" y="286.031" width="11.25" height="1.96875" class="st10"/>
			</g>
			<g id="shape128-148" v:mID="128" v:groupContext="shape" transform="translate(0,-28.241)">
				<title>Sheet.128</title>
				<desc>NOT</desc>
				<v:userDefs/>
				<v:textBlock v:margins="rect(4,4,4,4)"/>
				<v:textRect cx="22.5" cy="278" width="45" height="20"/>
				<rect x="0" y="268" width="45" height="20" class="st4"/>
				<text x="4" y="282.8" class="st9" v:langID="1033"><v:paragraph/><v:tabList/>NOT</text>			</g>
		</g>
		<g id="group47-151" transform="translate(228.136,-153.519)" v:mID="47" v:groupContext="group">
			<title>Sheet.47</title>
			<g id="shape100-152" v:mID="100" v:groupContext="shape" transform="translate(3.375,0)">
				<title>Sheet.100</title>
				<desc>ab</desc>
				<v:userDefs/>
				<v:textBlock v:margins="rect(4,4,4,4)"/>
				<v:textRect cx="27" cy="278" width="54" height="20"/>
				<rect x="0" y="268" width="54" height="20" class="st4"/>
				<text x="4" y="282.8" class="st8" v:langID="1033"><v:paragraph/><v:tabList/>ab</text>			</g>
			<g id="shape107-155" v:mID="107" v:groupContext="shape" transform="translate(5.625,-18.0312)">
				<title>Sheet.107</title>
				<rect x="0" y="286.031" width="22.5" height="1.96875" class="st10"/>
			</g>
			<g id="shape123-157" v:mID="123" v:groupContext="shape" transform="translate(0,-28.241)">
				<title>Sheet.123</title>
				<desc>NAND</desc>
				<v:userDefs/>
				<v:textBlock v:margins="rect(4,4,4,4)"/>
				<v:textRect cx="29.25" cy="278" width="58.5" height="20"/>
				<rect x="0" y="268" width="58.5" height="20" class="st4"/>
				<text x="4" y="282.8" class="st9" v:langID="1033"><v:paragraph/><v:tabList/>NAND</text>			</g>
		</g>
		<g id="group48-160" transform="translate(228.136,-84.5188)" v:mID="48" v:groupContext="group">
			<title>Sheet.48</title>
			<g id="shape101-161" v:mID="101" v:groupContext="shape" transform="translate(3.375,5.68434E-014)">
				<title>Sheet.101</title>
				<desc>a+b</desc>
				<v:userDefs/>
				<v:textBlock v:margins="rect(4,4,4,4)"/>
				<v:textRect cx="27" cy="278" width="54" height="20"/>
				<rect x="0" y="268" width="54" height="20" class="st4"/>
				<text x="4" y="282.8" class="st8" v:langID="1033"><v:paragraph/><v:tabList/>a+b</text>			</g>
			<g id="shape106-164" v:mID="106" v:groupContext="shape" transform="translate(5.625,-18.2813)">
				<title>Sheet.106</title>
				<rect x="0" y="286.031" width="29.25" height="1.96875" class="st10"/>
			</g>
			<g id="shape125-166" v:mID="125" v:groupContext="shape" transform="translate(0,-28.241)">
				<title>Sheet.125</title>
				<desc>NOR</desc>
				<v:userDefs/>
				<v:textBlock v:margins="rect(4,4,4,4)"/>
				<v:textRect cx="24.1875" cy="278" width="48.38" height="20"/>
				<rect x="0" y="268" width="48.375" height="20" class="st4"/>
				<text x="4" y="282.8" class="st9" v:langID="1033"><v:paragraph/><v:tabList/>NOR</text>			</g>
		</g>
		<g id="group61-169" transform="translate(228.136,-19.2598)" v:mID="61" v:groupContext="group">
			<title>Sheet.61</title>
			<g id="shape105-170" v:mID="105" v:groupContext="shape" transform="translate(5.625,-20.0003)">
				<title>Sheet.105</title>
				<rect x="0" y="286.031" width="37.125" height="1.96875" class="st10"/>
			</g>
			<g id="shape116-172" v:mID="116" v:groupContext="shape" transform="translate(29.25,0)">
				<title>Sheet.116</title>
				<desc>b</desc>
				<v:userDefs/>
				<v:textBlock v:margins="rect(4,4,4,4)"/>
				<v:textRect cx="8.55709" cy="278" width="17.12" height="20"/>
				<rect x="0" y="268" width="17.1142" height="20" class="st4"/>
				<text x="4" y="282.8" class="st8" v:langID="1033"><v:paragraph/><v:tabList/>b</text>			</g>
			<g id="shape117-175" v:mID="117" v:groupContext="shape" transform="translate(2.25,0)">
				<title>Sheet.117</title>
				<desc>a</desc>
				<v:userDefs/>
				<v:textBlock v:margins="rect(4,4,4,4)"/>
				<v:textRect cx="27" cy="278" width="54.01" height="20"/>
				<rect x="0" y="268" width="54" height="20" class="st4"/>
				<text x="4" y="282.8" class="st8" v:langID="1033"><v:paragraph/><v:tabList/>a</text>			</g>
			<g id="group118-178" transform="translate(18,-5.84915)" v:mID="118" v:groupContext="group">
				<title>Sheet.118</title>
				<g id="shape119-179" v:mID="119" v:groupContext="shape">
					<title>Circle</title>
					<v:userDefs>
						<v:ud v:nameU="visVersion" v:val="VT0(14):26"/>
					</v:userDefs>
					<path d="M0 283.17 A4.825 4.825 0 0 1 9.65 283.17 A4.825 4.825 0 0 1 0 283.17 Z" class="st11"/>
				</g>
				<g id="shape120-181" v:mID="120" v:groupContext="shape" transform="translate(0.118898,-0.0932093)">
					<title>Cross</title>
					<v:userDefs>
						<v:ud v:nameU="ScaleFactor" v:val="VT0(1):26"/>
						<v:ud v:nameU="ControlX1" v:val="VT0(0):26"/>
						<v:ud v:nameU="ControlX2" v:val="VT0(0.05680900295324):1"/>
						<v:ud v:nameU="ControlY1" v:val="VT0(0.05520959295324):1"/>
						<v:ud v:nameU="ControlY2" v:val="VT0(0):26"/>
						<v:ud v:nameU="visVersion" v:val="VT0(14):26"/>
					</v:userDefs>
					<path d="M0 284.02 L4.09 284.02 L4.09 288 L5.44 288 L5.44 284.02 L9.53 284.02 L9.53 282.45 L5.44 282.45 L5.44
								 278.47 L4.09 278.47 L4.09 282.45 L0 282.45 L0 284.02 Z" class="st12"/>
				</g>
			</g>
			<g id="shape127-183" v:mID="127" v:groupContext="shape" transform="translate(0,-24.5)">
				<title>Sheet.127</title>
				<desc>XNOR</desc>
				<v:userDefs/>
				<v:textBlock v:margins="rect(4,4,4,4)"/>
				<v:textRect cx="28.6875" cy="278" width="57.39" height="20"/>
				<rect x="0" y="268" width="57.375" height="20" class="st4"/>
				<text x="4" y="282.8" class="st9" v:langID="1033"><v:paragraph/><v:tabList/>XNOR</text>			</g>
		</g>
		<g id="group69-186" transform="translate(78.75,-19.2598)" v:mID="69" v:groupContext="group">
			<title>Sheet.69</title>
			<g id="shape110-187" v:mID="110" v:groupContext="shape" transform="translate(27,0)">
				<title>Sheet.110</title>
				<desc>b</desc>
				<v:userDefs/>
				<v:textBlock v:margins="rect(4,4,4,4)"/>
				<v:textRect cx="9" cy="278" width="18.01" height="20"/>
				<rect x="0" y="268" width="18" height="20" class="st4"/>
				<text x="4" y="282.8" class="st8" v:langID="1033"><v:paragraph/><v:tabList/>b</text>			</g>
			<g id="shape111-190" v:mID="111" v:groupContext="shape">
				<title>Sheet.111</title>
				<desc>a</desc>
				<v:userDefs/>
				<v:textBlock v:margins="rect(4,4,4,4)"/>
				<v:textRect cx="27" cy="278" width="54.01" height="20"/>
				<rect x="0" y="268" width="54" height="20" class="st4"/>
				<text x="4" y="282.8" class="st8" v:langID="1033"><v:paragraph/><v:tabList/>a</text>			</g>
			<g id="group112-193" transform="translate(15.75,-5.84915)" v:mID="112" v:groupContext="group">
				<title>Sheet.112</title>
				<g id="shape113-194" v:mID="113" v:groupContext="shape">
					<title>Circle</title>
					<v:userDefs>
						<v:ud v:nameU="visVersion" v:val="VT0(14):26"/>
					</v:userDefs>
					<path d="M0 283.17 A4.825 4.825 0 0 1 9.65 283.17 A4.825 4.825 0 0 1 0 283.17 Z" class="st11"/>
				</g>
				<g id="shape114-196" v:mID="114" v:groupContext="shape" transform="translate(0.118898,-0.0932093)">
					<title>Cross</title>
					<v:userDefs>
						<v:ud v:nameU="ScaleFactor" v:val="VT0(1):26"/>
						<v:ud v:nameU="ControlX1" v:val="VT0(0):26"/>
						<v:ud v:nameU="ControlX2" v:val="VT0(0.05680900295324):1"/>
						<v:ud v:nameU="ControlY1" v:val="VT0(0.05520959295324):1"/>
						<v:ud v:nameU="ControlY2" v:val="VT0(0):26"/>
						<v:ud v:nameU="visVersion" v:val="VT0(14):26"/>
					</v:userDefs>
					<path d="M0 284.02 L4.09 284.02 L4.09 288 L5.44 288 L5.44 284.02 L9.53 284.02 L9.53 282.45 L5.44 282.45 L5.44
								 278.47 L4.09 278.47 L4.09 282.45 L0 282.45 L0 284.02 Z" class="st12"/>
				</g>
			</g>
			<g id="shape126-198" v:mID="126" v:groupContext="shape" transform="translate(3.8769E-013,-24.5)">
				<title>Sheet.126</title>
				<desc>XOR</desc>
				<v:userDefs/>
				<v:textBlock v:margins="rect(4,4,4,4)"/>
				<v:textRect cx="21.375" cy="278" width="42.75" height="20"/>
				<rect x="0" y="268" width="42.75" height="20" class="st4"/>
				<text x="4" y="282.8" class="st9" v:langID="1033"><v:paragraph/><v:tabList/>XOR</text>			</g>
		</g>
		<g id="group70-201" transform="translate(78.75,-84.5188)" v:mID="70" v:groupContext="group">
			<title>Sheet.70</title>
			<g id="shape104-202" v:mID="104" v:groupContext="shape" transform="translate(1.125,5.68434E-014)">
				<title>Sheet.104</title>
				<desc>a+b</desc>
				<v:userDefs/>
				<v:textBlock v:margins="rect(4,4,4,4)"/>
				<v:textRect cx="27" cy="278" width="54" height="20"/>
				<rect x="0" y="268" width="54" height="20" class="st4"/>
				<text x="4" y="282.8" class="st8" v:langID="1033"><v:paragraph/><v:tabList/>a+b</text>			</g>
			<g id="shape124-205" v:mID="124" v:groupContext="shape" transform="translate(0,-28.241)">
				<title>Sheet.124</title>
				<desc>OR</desc>
				<v:userDefs/>
				<v:textBlock v:margins="rect(4,4,4,4)"/>
				<v:textRect cx="21.375" cy="278" width="42.75" height="20"/>
				<rect x="0" y="268" width="42.75" height="20" class="st4"/>
				<text x="4" y="282.8" class="st9" v:langID="1033"><v:paragraph/><v:tabList/>OR</text>			</g>
		</g>
		<g id="group71-208" transform="translate(78.75,-153.519)" v:mID="71" v:groupContext="group">
			<title>Sheet.71</title>
			<g id="shape103-209" v:mID="103" v:groupContext="shape" transform="translate(1.125,0)">
				<title>Sheet.103</title>
				<desc>ab</desc>
				<v:userDefs/>
				<v:textBlock v:margins="rect(4,4,4,4)"/>
				<v:textRect cx="27" cy="278" width="54" height="20"/>
				<rect x="0" y="268" width="54" height="20" class="st4"/>
				<text x="4" y="282.8" class="st8" v:langID="1033"><v:paragraph/><v:tabList/>ab</text>			</g>
			<g id="shape122-212" v:mID="122" v:groupContext="shape" transform="translate(0,-28.241)">
				<title>Sheet.122</title>
				<desc>AND</desc>
				<v:userDefs/>
				<v:textBlock v:margins="rect(4,4,4,4)"/>
				<v:textRect cx="21.375" cy="278" width="42.75" height="20"/>
				<rect x="0" y="268" width="42.75" height="20" class="st4"/>
				<text x="4" y="282.8" class="st9" v:langID="1033"><v:paragraph/><v:tabList/>AND</text>			</g>
		</g>
	</g>
</svg>
