<?xml version="1.0" encoding="UTF-8" standalone="no"?>
<!DOCTYPE svg PUBLIC "-//W3C//DTD SVG 1.1//EN"
 "http://www.w3.org/Graphics/SVG/1.1/DTD/svg11.dtd">
<!-- Generated by graphviz version 2.28.0 (20110507.0327)
 -->
<!-- Title: G Pages: 1 -->
<svg width="720pt" height="200pt"
 viewBox="0.00 0.00 720.00 200.00" xmlns="http://www.w3.org/2000/svg" xmlns:xlink="http://www.w3.org/1999/xlink">
<g id="graph1" class="graph" transform="scale(1 1) rotate(0) translate(4 196)">
<title>G</title>
<polygon fill="white" stroke="white" points="-4,5 -4,-196 717,-196 717,5 -4,5"/>
<!-- 0 -->
<!-- 0 even, 1 even -->
<g id="node3" class="node"><title>0 even, 1 even</title>
<ellipse fill="none" stroke="black" cx="155" cy="-62" rx="62.2891" ry="62.2891"/>
<text text-anchor="middle" x="155" y="-58.3" font-family="Times New Roman,serif" font-size="14.00">0 even, 1 even</text>
</g>
<!-- 0&#45;&gt;0 even, 1 even -->
<g id="edge2" class="edge"><title>0&#45;&gt;0 even, 1 even</title>
<path fill="none" stroke="black" d="M54.1073,-62C62.5409,-62 72.3365,-62 82.4311,-62"/>
<polygon fill="black" stroke="black" points="82.586,-65.5001 92.586,-62 82.586,-58.5001 82.586,-65.5001"/>
</g>
<!-- 0 odd, 1 even -->
<g id="node5" class="node"><title>0 odd, 1 even</title>
<ellipse fill="none" stroke="black" cx="323" cy="-132" rx="60.3893" ry="60.3893"/>
<text text-anchor="middle" x="323" y="-128.3" font-family="Times New Roman,serif" font-size="14.00">0 odd, 1 even</text>
</g>
<!-- 0 even, 1 even&#45;&gt;0 odd, 1 even -->
<g id="edge4" class="edge"><title>0 even, 1 even&#45;&gt;0 odd, 1 even</title>
<path fill="none" stroke="black" d="M211.233,-89.0026C219.483,-92.812 227.927,-96.5883 236,-100 242.558,-102.771 249.446,-105.55 256.351,-108.249"/>
<polygon fill="black" stroke="black" points="255.156,-111.54 265.746,-111.873 257.675,-105.009 255.156,-111.54"/>
<text text-anchor="middle" x="240" y="-105.8" font-family="Times New Roman,serif" font-size="14.00">0</text>
</g>
<!-- 0 even, 1 odd -->
<g id="node7" class="node"><title>0 even, 1 odd</title>
<ellipse fill="none" stroke="black" cx="651" cy="-64" rx="60.3893" ry="60.3893"/>
<text text-anchor="middle" x="651" y="-60.3" font-family="Times New Roman,serif" font-size="14.00">0 even, 1 odd</text>
</g>
<!-- 0 even, 1 even&#45;&gt;0 even, 1 odd -->
<g id="edge6" class="edge"><title>0 even, 1 even&#45;&gt;0 even, 1 odd</title>
<path fill="none" stroke="black" d="M217.469,-62.0238C294.314,-62.0844 429.882,-62.2929 546,-63 556.99,-63.0669 568.634,-63.1586 579.998,-63.2594"/>
<polygon fill="black" stroke="black" points="580.298,-66.7622 590.33,-63.3541 580.362,-59.7625 580.298,-66.7622"/>
<text text-anchor="middle" x="406" y="-65.8" font-family="Times New Roman,serif" font-size="14.00">1</text>
</g>
<!-- 0 odd, 1 even&#45;&gt;0 even, 1 even -->
<g id="edge8" class="edge"><title>0 odd, 1 even&#45;&gt;0 even, 1 even</title>
<path fill="none" stroke="black" d="M273.586,-96.4865C264.111,-90.6654 254.002,-85.18 244,-81 238.549,-78.722 232.79,-76.7025 226.932,-74.9149"/>
<polygon fill="black" stroke="black" points="227.591,-71.4644 217.016,-72.1205 225.692,-78.2019 227.591,-71.4644"/>
<text text-anchor="middle" x="240" y="-84.8" font-family="Times New Roman,serif" font-size="14.00">0</text>
</g>
<!-- 0 odd, 1 odd -->
<g id="node10" class="node"><title>0 odd, 1 odd</title>
<ellipse fill="none" stroke="black" cx="487" cy="-130" rx="58.4896" ry="58.4896"/>
<text text-anchor="middle" x="487" y="-126.3" font-family="Times New Roman,serif" font-size="14.00">0 odd, 1 odd</text>
</g>
<!-- 0 odd, 1 even&#45;&gt;0 odd, 1 odd -->
<g id="edge10" class="edge"><title>0 odd, 1 even&#45;&gt;0 odd, 1 odd</title>
<path fill="none" stroke="black" d="M383.863,-131.261C394.973,-131.124 406.653,-130.98 417.986,-130.84"/>
<polygon fill="black" stroke="black" points="418.313,-134.336 428.269,-130.713 418.227,-127.337 418.313,-134.336"/>
<text text-anchor="middle" x="406" y="-134.8" font-family="Times New Roman,serif" font-size="14.00">1</text>
</g>
<!-- 0 even, 1 odd&#45;&gt;0 even, 1 even -->
<g id="edge14" class="edge"><title>0 even, 1 odd&#45;&gt;0 even, 1 even</title>
<path fill="none" stroke="black" d="M590.916,-57.3828C542.395,-52.2973 471.843,-45.7005 410,-43 348.21,-40.3019 278.12,-46.2233 227.244,-52.1512"/>
<polygon fill="black" stroke="black" points="226.525,-48.712 217.011,-53.3736 227.356,-55.6626 226.525,-48.712"/>
<text text-anchor="middle" x="406" y="-46.8" font-family="Times New Roman,serif" font-size="14.00">1</text>
</g>
<!-- 0 even, 1 odd&#45;&gt;0 odd, 1 odd -->
<g id="edge12" class="edge"><title>0 even, 1 odd&#45;&gt;0 odd, 1 odd</title>
<path fill="none" stroke="black" d="M592.058,-79.0151C582.565,-81.9948 572.921,-85.3455 564,-89 558.49,-91.2573 552.86,-93.8012 547.28,-96.4883"/>
<polygon fill="black" stroke="black" points="545.362,-93.5332 537.967,-101.12 548.48,-99.8007 545.362,-93.5332"/>
<text text-anchor="middle" x="568" y="-92.8" font-family="Times New Roman,serif" font-size="14.00">0</text>
</g>
<!-- 0 odd, 1 odd&#45;&gt;0 odd, 1 even -->
<g id="edge18" class="edge"><title>0 odd, 1 odd&#45;&gt;0 odd, 1 even</title>
<path fill="none" stroke="black" d="M431.133,-111.851C421.48,-110.305 411.486,-109.745 402,-111 398.381,-111.479 394.691,-112.077 390.983,-112.766"/>
<polygon fill="black" stroke="black" points="390.252,-109.343 381.159,-114.781 391.658,-116.2 390.252,-109.343"/>
<text text-anchor="middle" x="406" y="-114.8" font-family="Times New Roman,serif" font-size="14.00">1</text>
</g>
<!-- 0 odd, 1 odd&#45;&gt;0 even, 1 odd -->
<g id="edge16" class="edge"><title>0 odd, 1 odd&#45;&gt;0 even, 1 odd</title>
<path fill="none" stroke="black" d="M543.607,-114.285C553.179,-111.156 562.952,-107.687 572,-104 577.327,-101.829 582.781,-99.4272 588.209,-96.9099"/>
<polygon fill="black" stroke="black" points="589.767,-100.044 597.291,-92.585 586.758,-93.7243 589.767,-100.044"/>
<text text-anchor="middle" x="568" y="-109.8" font-family="Times New Roman,serif" font-size="14.00">0</text>
</g>
</g>
</svg>
